<svg width="505" height="457" viewBox="0 0 505 457" fill="none" xmlns="http://www.w3.org/2000/svg">
<g clip-path="url(#clip0_1498_593)">
<path d="M298.887 393.167L280.508 453.911" stroke="#FF6600" stroke-width="2.36308" stroke-miterlimit="10"/>
<path d="M288.985 455.522C300.027 455.522 308.977 446.58 308.977 435.55C308.977 424.52 300.027 415.578 288.985 415.578C277.944 415.578 268.994 424.52 268.994 435.55C268.994 446.58 277.944 455.522 288.985 455.522Z" fill="white" stroke="#FF6600" stroke-width="2.082" stroke-miterlimit="10"/>
<path d="M446.419 213.229L502.4 183.264" stroke="#FF6600" stroke-width="2.36308" stroke-miterlimit="10"/>
<path d="M483.415 210.228C494.456 210.228 503.406 201.287 503.406 190.256C503.406 179.226 494.456 170.285 483.415 170.285C472.373 170.285 463.423 179.226 463.423 190.256C463.423 201.287 472.373 210.228 483.415 210.228Z" fill="white" stroke="#FF6600" stroke-width="2.082" stroke-miterlimit="10"/>
<path d="M291.443 276.16L312.441 345.078" stroke="#FF6600" stroke-width="2.082" stroke-miterlimit="10"/>
<path d="M331.426 270.173L408.419 219.231" stroke="#FF6600" stroke-width="2.082" stroke-miterlimit="10"/>
<path d="M44.4673 271.164L14.4722 215.225" stroke="#FF6600" stroke-width="2.36308" stroke-miterlimit="10"/>
<path d="M160.379 268.429L50.5498 328.847" stroke="#FF6600" stroke-width="2.082" stroke-miterlimit="10"/>
<path d="M169.45 205.247L119.463 90.3831" stroke="#FF6600" stroke-width="2.082" stroke-miterlimit="10"/>
<path d="M286.441 206.237L289.43 108.359" stroke="#FF6600" stroke-width="2.36308" stroke-miterlimit="10"/>
<path d="M311.76 175.429H154.741C135.306 175.429 119.552 191.168 119.552 210.583V263.136C119.552 282.551 135.306 298.29 154.741 298.29H311.76C331.195 298.29 346.95 282.551 346.95 263.136V210.583C346.95 191.168 331.195 175.429 311.76 175.429Z" fill="white" stroke="#FF6600" stroke-width="2.082" stroke-miterlimit="10"/>
<path d="M211.048 235.951C211.048 227.51 217.426 221.242 226.156 221.242C230.3 221.242 234.103 222.587 237.122 225.543C237.787 226.209 238.187 227.11 237.122 228.175L235.168 230.126C234.443 230.791 233.659 231.072 232.475 230.067C230.3 228.057 228.228 227.657 226.378 227.657C221.732 227.657 218.432 231.176 218.432 235.936C218.432 240.696 221.569 244.214 226.378 244.214C228.228 244.214 230.3 243.771 232.475 241.805C233.644 240.74 234.428 241.021 235.168 241.746L237.122 243.697C238.187 244.761 237.787 245.604 237.122 246.269C234.103 249.285 230.3 250.63 226.156 250.63C217.426 250.63 211.048 244.318 211.048 235.921V235.951Z" fill="#FF6600"/>
<path d="M269.633 223.651V247.747C269.633 249.093 268.848 249.92 267.502 249.92H265.43C264.083 249.92 263.299 249.078 263.299 247.747V246.461C261.006 248.974 257.868 250.66 253.843 250.66C245.616 250.66 239.8 244.17 239.8 235.951C239.8 227.731 245.616 221.242 253.843 221.242C257.587 221.242 260.843 222.69 263.299 224.937V223.651C263.299 222.306 264.083 221.522 265.43 221.522H267.502C268.848 221.522 269.633 222.306 269.633 223.651ZM262.633 235.951C262.633 230.644 259.171 227.672 254.968 227.672C250.262 227.672 247.184 231.368 247.184 235.951C247.184 240.533 250.262 244.17 254.968 244.17C259.171 244.17 262.633 241.154 262.633 235.951Z" fill="#FF6600"/>
<path d="M296.386 223.991L295.661 226.785C295.277 228.19 294.374 228.352 293.486 228.071C292.702 227.79 291.814 227.628 290.97 227.628C287.33 227.628 285.258 230.422 285.258 234.443V247.747C285.258 249.093 284.474 249.921 283.128 249.921H279.887C278.54 249.921 277.815 249.078 277.815 247.747V228.677C277.815 228.057 277.534 227.776 277.09 227.776C276.587 227.776 275.965 228.116 275.462 228.16C274.841 228.382 274.234 228.101 273.835 226.933L273.331 224.583C272.932 223.415 273.169 222.676 274.116 222.173C275.285 221.508 276.853 221.227 278.037 221.227C280.73 221.227 283.128 222.454 283.912 225.366C285.584 222.794 288.159 221.227 291.695 221.227C293.042 221.227 294.108 221.389 295.217 221.729C296.061 222.01 296.845 222.454 296.386 223.962V223.991Z" fill="#FF6600"/>
<path d="M330.525 249.595C329.075 250.438 327.447 250.66 326.278 250.66C323.481 250.66 321.351 249.093 320.685 246.299C318.391 248.871 315.15 250.66 311.066 250.66C302.838 250.66 297.023 244.17 297.023 235.951C297.023 227.731 302.838 221.242 311.066 221.242C314.262 221.242 317.104 222.306 319.397 223.976V212.801C319.397 211.514 320.122 210.953 321.469 210.627L324.606 210.066C326.115 209.785 326.841 210.687 326.841 212.135V243.268C326.841 243.889 326.959 244.333 327.566 244.333C328.01 244.333 328.409 244.111 328.912 244.052C329.756 243.83 330.318 244.273 330.644 245.279L331.265 247.23C331.768 248.575 331.324 249.137 330.54 249.58L330.525 249.595ZM319.841 235.951C319.841 230.644 316.378 227.672 312.176 227.672C307.47 227.672 304.392 231.368 304.392 235.951C304.392 240.533 307.47 244.17 312.176 244.17C316.378 244.17 319.841 241.154 319.841 235.951Z" fill="#FF6600"/>
<path d="M178.625 263.713H144.738C139.381 263.713 135.031 259.367 135.031 254.015V236.956C135.031 231.605 139.381 227.258 144.738 227.258H147.772V224.952C147.772 219.601 152.122 215.255 157.479 215.255H190.049C195.406 215.255 199.756 219.601 199.756 224.952V242.012C199.756 247.363 195.406 251.709 190.049 251.709H188.318V254.015C188.318 259.367 183.967 263.713 178.61 263.713H178.625ZM144.738 232.24C142.134 232.24 140.018 234.354 140.018 236.956V254.015C140.018 256.617 142.134 258.731 144.738 258.731H178.625C181.229 258.731 183.346 256.617 183.346 254.015V251.709H157.479C152.122 251.709 147.772 247.363 147.772 242.012V236.941C147.772 235.226 148.216 233.63 149 232.24H144.738ZM188.318 246.742H190.049C192.653 246.742 194.769 244.628 194.769 242.027V224.967C194.769 222.365 192.653 220.251 190.049 220.251H157.479C154.875 220.251 152.759 222.365 152.759 224.967V228.5C154.164 227.717 155.762 227.273 157.479 227.273H178.61C183.967 227.273 188.318 231.619 188.318 236.971V246.757V246.742ZM157.479 232.24C154.875 232.24 152.759 234.354 152.759 236.956V242.027C152.759 244.628 154.875 246.742 157.479 246.742H183.346V236.956C183.346 234.354 181.229 232.24 178.625 232.24H157.494H157.479Z" fill="#FF6600"/>
<path d="M415.418 272.656C441.644 272.656 462.904 251.418 462.904 225.218C462.904 199.018 441.644 177.78 415.418 177.78C389.192 177.78 367.932 199.018 367.932 225.218C367.932 251.418 389.192 272.656 415.418 272.656Z" fill="white" stroke="#FF6600" stroke-width="2.082" stroke-miterlimit="10"/>
<path d="M315.429 411.498C341.655 411.498 362.916 390.259 362.916 364.06C362.916 337.86 341.655 316.621 315.429 316.621C289.204 316.621 267.943 337.86 267.943 364.06C267.943 390.259 289.204 411.498 315.429 411.498Z" fill="white" stroke="#FF6600" stroke-width="2.082" stroke-miterlimit="10"/>
<path d="M128.46 164.298C158.281 164.298 182.457 140.146 182.457 110.355C182.457 80.5627 158.281 56.4116 128.46 56.4116C98.6378 56.4116 74.4624 80.5627 74.4624 110.355C74.4624 140.146 98.6378 164.298 128.46 164.298Z" fill="white" stroke="#FF6600" stroke-width="2.36308" stroke-miterlimit="10"/>
<path d="M58.4664 369.056C88.2882 369.056 112.464 344.905 112.464 315.113C112.464 285.321 88.2882 261.17 58.4664 261.17C28.6446 261.17 4.46924 285.321 4.46924 315.113C4.46924 344.905 28.6446 369.056 58.4664 369.056Z" fill="white" stroke="#FF6600" stroke-width="2.36308" stroke-miterlimit="10"/>
<path d="M77.467 131.332L21.4722 161.297" stroke="#FF6600" stroke-width="2.36308" stroke-miterlimit="10"/>
<path d="M40.4723 174.276C51.5135 174.276 60.4641 165.334 60.4641 154.304C60.4641 143.274 51.5135 134.333 40.4723 134.333C29.4311 134.333 20.4805 143.274 20.4805 154.304C20.4805 165.334 29.4311 174.276 40.4723 174.276Z" fill="white" stroke="#FF6600" stroke-width="2.082" stroke-miterlimit="10"/>
<path d="M21.4718 254.178C32.513 254.178 41.4636 245.236 41.4636 234.206C41.4636 223.176 32.513 214.234 21.4718 214.234C10.4306 214.234 1.47998 223.176 1.47998 234.206C1.47998 245.236 10.4306 254.178 21.4718 254.178Z" fill="white" stroke="#FF6600" stroke-width="2.082" stroke-miterlimit="10"/>
<path d="M246.443 58.4075L216.448 2.48358" stroke="#FF6600" stroke-width="2.36308" stroke-miterlimit="10"/>
<path d="M223.447 41.4219C234.488 41.4219 243.439 32.4803 243.439 21.4502C243.439 10.4201 234.488 1.47842 223.447 1.47842C212.406 1.47842 203.455 10.4201 203.455 21.4502C203.455 32.4803 212.406 41.4219 223.447 41.4219Z" fill="white" stroke="#FF6600" stroke-width="2.082" stroke-miterlimit="10"/>
<path d="M287.432 147.312C317.254 147.312 341.429 123.161 341.429 93.3692C341.429 63.5773 317.254 39.4263 287.432 39.4263C257.61 39.4263 233.435 63.5773 233.435 93.3692C233.435 123.161 257.61 147.312 287.432 147.312Z" fill="white" stroke="#FF6600" stroke-width="2.36308" stroke-miterlimit="10"/>
<g clip-path="url(#clip1_1498_593)">
<path d="M166.561 110.869C166.561 105.973 165.582 101.309 163.831 97.0291C164.87 96.2032 165.551 94.945 165.551 93.5242C165.551 91.0378 163.512 89.0136 161.007 89.0136C160.476 89.0136 159.976 89.1206 159.502 89.2875C157.63 86.7198 155.435 84.4089 152.977 82.3932C153.111 81.9653 153.206 81.5245 153.206 81.0537C153.206 78.5674 151.166 76.5432 148.661 76.5432C147.51 76.5432 146.47 76.9839 145.668 77.6858C140.722 75.2807 135.186 73.9113 129.321 73.9113C123.112 73.9113 117.269 75.4476 112.116 78.1266C111.284 77.1936 110.08 76.5902 108.726 76.5902C106.221 76.5902 104.181 78.6144 104.181 81.1008C104.181 81.8497 104.384 82.543 104.708 83.1635C99.1837 88.0036 95.1217 94.4486 93.2459 101.749C93.1726 101.749 93.1036 101.728 93.0303 101.728C90.525 101.728 88.4854 103.752 88.4854 106.239C88.4854 108.404 90.0334 110.219 92.086 110.651C92.086 110.723 92.0817 110.796 92.0817 110.869C92.0817 111.528 92.0989 112.183 92.1334 112.829C92.1463 113.047 92.1679 113.261 92.1851 113.479C92.2153 113.912 92.2455 114.34 92.2886 114.768C92.3145 115.02 92.3533 115.268 92.3835 115.521C92.4309 115.91 92.4827 116.295 92.5431 116.681C92.5862 116.942 92.6379 117.203 92.6854 117.464C92.7543 117.832 92.819 118.2 92.8966 118.564C92.9527 118.829 93.0174 119.09 93.0821 119.351C93.1683 119.706 93.2502 120.061 93.3451 120.412C93.4141 120.673 93.4917 120.93 93.5693 121.191C93.6728 121.538 93.7763 121.884 93.8841 122.222C93.9661 122.479 94.0566 122.732 94.1428 122.984C94.2636 123.322 94.3843 123.665 94.5137 123.998C94.6086 124.247 94.7077 124.491 94.8069 124.735C94.9449 125.068 95.0872 125.402 95.2338 125.732C95.3373 125.967 95.4451 126.207 95.5572 126.438C95.7125 126.772 95.8763 127.101 96.0402 127.426C96.1523 127.649 96.2687 127.876 96.3851 128.098C96.5619 128.428 96.7474 128.757 96.9328 129.083C97.0535 129.292 97.17 129.502 97.295 129.707C97.4934 130.041 97.7047 130.371 97.9159 130.696C98.0367 130.884 98.1574 131.077 98.2868 131.265C98.5153 131.603 98.7525 131.937 98.9897 132.271C99.1104 132.438 99.2268 132.609 99.3519 132.776C99.6149 133.131 99.8909 133.478 100.167 133.824C100.275 133.957 100.378 134.094 100.486 134.226C100.814 134.624 101.154 135.014 101.495 135.399C101.56 135.472 101.624 135.549 101.689 135.622C101.702 135.634 101.711 135.643 101.724 135.656C101.094 136.43 100.702 137.402 100.702 138.472C100.702 140.958 102.741 142.982 105.247 142.982C106.562 142.982 107.739 142.417 108.571 141.527C108.709 141.617 108.843 141.716 108.981 141.805C108.985 141.805 108.994 141.814 108.998 141.818C109.809 142.345 110.65 142.833 111.503 143.295C112.926 144.069 114.397 144.763 115.928 145.349C116.04 145.392 116.148 145.439 116.264 145.482C116.618 145.614 116.976 145.734 117.329 145.854C117.527 145.922 117.722 145.991 117.92 146.051C118.243 146.153 118.567 146.248 118.89 146.342C119.132 146.41 119.373 146.483 119.615 146.547C119.916 146.628 120.223 146.705 120.524 146.778C120.796 146.842 121.072 146.907 121.348 146.967C121.637 147.031 121.926 147.091 122.215 147.146C122.517 147.206 122.818 147.258 123.125 147.309C123.396 147.356 123.672 147.399 123.948 147.442C124.28 147.489 124.621 147.531 124.957 147.57C125.207 147.6 125.457 147.63 125.712 147.656C126.1 147.694 126.492 147.72 126.885 147.745C127.092 147.758 127.294 147.78 127.506 147.788C128.109 147.818 128.717 147.835 129.325 147.835C135.401 147.835 141.136 146.372 146.212 143.8C147.031 144.591 148.148 145.084 149.381 145.084C151.886 145.084 153.926 143.059 153.926 140.573C153.926 139.974 153.801 139.405 153.59 138.883C161.528 132.1 166.565 122.064 166.565 110.878L166.561 110.869ZM163.378 93.5242C163.378 94.8252 162.313 95.8822 161.002 95.8822C159.691 95.8822 158.626 94.8252 158.626 93.5242C158.626 92.2232 159.691 91.1662 161.002 91.1662C162.313 91.1662 163.378 92.2232 163.378 93.5242ZM155.418 87.6484C155.767 88.0379 156.112 88.4316 156.444 88.8339C156.487 88.8852 156.526 88.9366 156.569 88.9879C156.871 89.356 157.169 89.7326 157.458 90.1134C157.54 90.2204 157.613 90.3317 157.691 90.4387C157.691 90.4387 157.695 90.4472 157.699 90.4515C156.936 91.2603 156.462 92.3345 156.462 93.5242C156.462 93.6569 156.487 93.781 156.5 93.9093C155.12 94.44 153.736 94.9621 152.343 95.4542C152.3 91.393 151.697 87.7597 151.011 84.8967C151.309 84.717 151.589 84.5116 151.839 84.2719C153.094 85.3118 154.293 86.4074 155.388 87.6099C155.401 87.6228 155.409 87.6356 155.422 87.6527L155.418 87.6484ZM150.162 96.1946C147.169 97.2046 144.15 98.1289 141.106 98.972C139.11 96.186 136.57 93.3231 133.4 90.6441C133.569 90.1776 133.676 89.6812 133.676 89.1548C133.676 88.6627 133.577 88.1962 133.426 87.7512C136.91 85.7398 140.684 84.1649 144.629 83.0951C145.384 84.5544 146.897 85.5643 148.661 85.5643C148.751 85.5643 148.838 85.5429 148.928 85.5387C149.605 88.4273 150.187 92.0991 150.162 96.1946ZM147.001 115.632C145.69 115.632 144.625 114.575 144.625 113.274C144.625 111.973 145.69 110.916 147.001 110.916C148.312 110.916 149.377 111.973 149.377 113.274C149.377 114.575 148.312 115.632 147.001 115.632ZM106.842 134.256C107.7 125.137 110.257 116.475 114.315 108.793C114.707 108.905 115.108 108.982 115.535 108.982C117.653 108.982 119.42 107.531 119.925 105.58C121.952 105.297 123.974 104.998 125.988 104.638C130.761 103.786 135.5 102.721 140.192 101.467C142.18 104.441 143.551 107.24 144.513 109.512C143.275 110.321 142.456 111.703 142.456 113.278C142.456 114.524 142.969 115.653 143.793 116.471C139.769 122.098 134.797 125.483 131.602 127.632C124.979 132.07 117.29 134.993 109.184 136.246C108.662 135.339 107.842 134.633 106.842 134.261V134.256ZM131.503 89.1591C131.503 90.4601 130.438 91.5171 129.127 91.5171C127.816 91.5171 126.751 90.4601 126.751 89.1591C126.751 87.8581 127.816 86.8011 129.127 86.8011C130.438 86.8011 131.503 87.8581 131.503 89.1591ZM126.415 92.7582C127.174 93.3231 128.105 93.6697 129.127 93.6697C130.309 93.6697 131.378 93.2075 132.189 92.4714C134.866 94.7652 137.087 97.196 138.868 99.5925C134.483 100.744 130.058 101.719 125.604 102.515C123.724 102.849 121.835 103.14 119.942 103.41C119.748 102.622 119.356 101.916 118.808 101.351C120.602 98.7623 123.038 95.7239 126.419 92.7624L126.415 92.7582ZM117.907 104.467C117.907 105.768 116.842 106.825 115.531 106.825C114.22 106.825 113.155 105.768 113.155 104.467C113.155 103.166 114.22 102.109 115.531 102.109C116.842 102.109 117.907 103.166 117.907 104.467ZM146.996 108.768C146.85 108.768 146.712 108.798 146.565 108.811C145.625 106.564 144.293 103.808 142.382 100.855C144.965 100.127 147.531 99.3443 150.075 98.497C149.864 101.814 149.209 105.323 147.88 108.853C147.592 108.798 147.298 108.763 146.996 108.763V108.768ZM148.657 78.7C149.968 78.7 151.033 79.7571 151.033 81.058C151.033 82.359 149.968 83.416 148.657 83.416C147.346 83.416 146.281 82.359 146.281 81.058C146.281 79.7571 147.346 78.7 148.657 78.7ZM116.29 78.5716C116.872 78.3363 117.467 78.1223 118.066 77.9212C118.17 77.8869 118.273 77.8484 118.377 77.8142C119.007 77.6088 119.64 77.4162 120.287 77.245C120.317 77.2364 120.348 77.2279 120.378 77.2193C121.063 77.0396 121.758 76.8812 122.461 76.74C122.564 76.7186 122.667 76.7058 122.767 76.6844C123.332 76.5774 123.905 76.4832 124.479 76.4062C124.681 76.3763 124.884 76.3549 125.091 76.3292C125.595 76.2693 126.1 76.2222 126.609 76.1794C126.811 76.1623 127.014 76.1452 127.221 76.1323C127.915 76.0895 128.618 76.0639 129.321 76.0639C130.024 76.0639 130.723 76.0895 131.417 76.1323C131.624 76.1452 131.826 76.1623 132.029 76.1794C132.534 76.2179 133.034 76.265 133.534 76.3249C133.741 76.3506 133.948 76.3763 134.155 76.4019C134.716 76.479 135.272 76.5688 135.828 76.6715C135.945 76.6929 136.057 76.7101 136.173 76.7315C136.872 76.8684 137.562 77.0267 138.243 77.2065C138.269 77.215 138.295 77.2236 138.325 77.2279C138.967 77.3991 139.605 77.5874 140.235 77.7928C140.347 77.827 140.455 77.8655 140.567 77.904C141.149 78.1009 141.727 78.3106 142.292 78.5374C142.365 78.5674 142.439 78.593 142.508 78.623C143.154 78.884 143.788 79.1708 144.413 79.4703C144.228 79.9539 144.116 80.476 144.112 81.0238C139.946 82.1407 135.953 83.7926 132.279 85.9153C131.46 85.1278 130.352 84.64 129.123 84.64C128.032 84.64 127.04 85.0422 126.255 85.6799C122.223 83.4117 117.821 81.7299 113.228 80.7028C113.207 80.4717 113.181 80.2449 113.125 80.0267C114.099 79.5174 115.091 79.0424 116.113 78.6273C116.169 78.6059 116.225 78.5845 116.281 78.5588L116.29 78.5716ZM108.726 78.7471C110.037 78.7471 111.102 79.8041 111.102 81.1051C111.102 82.4061 110.037 83.4631 108.726 83.4631C107.416 83.4631 106.35 82.4061 106.35 81.1051C106.35 79.8041 107.416 78.7471 108.726 78.7471ZM95.4969 101.707C95.5055 101.668 95.5184 101.634 95.527 101.595C95.6736 101.065 95.8332 100.543 96.0057 100.025C96.0229 99.9734 96.0402 99.9263 96.0574 99.875C96.2256 99.37 96.4067 98.8736 96.6008 98.3771C96.6223 98.3172 96.6482 98.2616 96.6697 98.2017C96.8595 97.7181 97.0622 97.2431 97.2734 96.7723C97.3036 96.7081 97.3338 96.6397 97.364 96.5755C97.5753 96.1133 97.7952 95.6597 98.0238 95.2103C98.0582 95.1376 98.0971 95.0691 98.1359 94.9963C98.3644 94.5556 98.6016 94.119 98.8517 93.6868C98.8948 93.6141 98.9379 93.5413 98.981 93.4643C99.2311 93.0406 99.4856 92.6212 99.7529 92.2061C99.8003 92.1334 99.8478 92.0563 99.8952 91.9836C100.163 91.577 100.439 91.1748 100.723 90.7768C100.775 90.704 100.827 90.6313 100.883 90.5542C101.167 90.1605 101.465 89.7754 101.767 89.3945C101.823 89.3217 101.879 89.2533 101.935 89.1805C102.241 88.7996 102.556 88.4273 102.879 88.0593C102.935 87.9951 102.991 87.9266 103.052 87.8624C103.379 87.4944 103.716 87.1306 104.061 86.7754C104.117 86.7198 104.169 86.6599 104.225 86.6043C104.578 86.2448 104.94 85.8896 105.311 85.5472C105.359 85.5001 105.406 85.4531 105.458 85.4103C105.686 85.2006 105.919 84.9994 106.152 84.7983C106.889 85.3076 107.778 85.6114 108.739 85.6114C110.615 85.6114 112.232 84.4773 112.926 82.8597C117.157 83.8226 121.214 85.3632 124.944 87.4302C124.72 87.9609 124.595 88.5471 124.595 89.1591C124.595 89.8567 124.767 90.5072 125.052 91.0977C121.434 94.2517 118.856 97.4784 116.971 100.209C116.518 100.059 116.044 99.9606 115.544 99.9606C113.047 99.9606 111.012 101.972 110.999 104.45C106.488 104.856 101.961 105.092 97.433 105.143C97.1311 103.966 96.3679 102.986 95.3416 102.383C95.3977 102.16 95.4494 101.933 95.5098 101.711L95.4969 101.707ZM90.6543 106.247C90.6543 104.946 91.7194 103.889 93.0303 103.889C94.3412 103.889 95.4063 104.946 95.4063 106.247C95.4063 107.548 94.3412 108.605 93.0303 108.605C91.7194 108.605 90.6543 107.548 90.6543 106.247ZM100.702 130.961C99.8952 129.836 99.1535 128.659 98.4851 127.435C98.4722 127.409 98.4593 127.384 98.4463 127.358C98.1919 126.891 97.9461 126.416 97.7133 125.933C97.7047 125.916 97.696 125.899 97.6917 125.881C97.4546 125.389 97.226 124.897 97.0147 124.392C97.0018 124.362 96.9888 124.328 96.9759 124.298C96.7689 123.81 96.5706 123.314 96.3851 122.813C96.342 122.702 96.3075 122.586 96.2687 122.475C96.1178 122.051 95.9669 121.628 95.8332 121.2C95.7944 121.084 95.7685 120.964 95.7297 120.844C95.6003 120.417 95.471 119.989 95.3589 119.552C95.3201 119.407 95.2899 119.257 95.2554 119.107C95.1562 118.696 95.0527 118.285 94.9665 117.866C94.9492 117.793 94.9406 117.716 94.9277 117.643C94.8285 117.151 94.7379 116.655 94.6603 116.154C94.6215 115.897 94.5956 115.636 94.5611 115.38C94.518 115.059 94.4706 114.742 94.4361 114.417C94.393 114.01 94.3671 113.595 94.3412 113.184C94.3283 113.004 94.311 112.829 94.3024 112.654C94.2722 112.063 94.255 111.464 94.255 110.865C94.255 110.762 94.2593 110.664 94.2636 110.561C95.8289 110.12 97.0492 108.879 97.4373 107.3C102.142 107.244 106.846 106.996 111.534 106.564C111.762 106.992 112.051 107.385 112.405 107.719C108.2 115.653 105.566 124.602 104.673 134.008C104.246 134.064 103.828 134.158 103.444 134.325C103.418 134.295 103.388 134.265 103.362 134.239C103.345 134.222 103.332 134.201 103.315 134.184C102.383 133.161 101.512 132.082 100.706 130.957L100.702 130.961ZM105.247 140.825C103.936 140.825 102.871 139.768 102.871 138.467C102.871 137.166 103.936 136.109 105.247 136.109C106.557 136.109 107.623 137.166 107.623 138.467C107.623 139.768 106.557 140.825 105.247 140.825ZM143.396 142.734C142.05 143.325 140.658 143.83 139.226 144.249C139.075 144.292 138.924 144.335 138.773 144.377C138.165 144.549 137.553 144.698 136.932 144.835C136.816 144.861 136.703 144.891 136.587 144.917C135.871 145.066 135.142 145.195 134.414 145.302C134.263 145.323 134.108 145.34 133.957 145.362C133.366 145.439 132.771 145.503 132.171 145.55C131.969 145.567 131.766 145.584 131.563 145.597C130.822 145.644 130.071 145.674 129.317 145.674C128.761 145.674 128.209 145.657 127.657 145.631C127.48 145.623 127.299 145.61 127.122 145.597C126.751 145.576 126.38 145.546 126.009 145.511C125.802 145.49 125.595 145.469 125.388 145.447C125.048 145.409 124.707 145.366 124.366 145.319C124.159 145.289 123.953 145.259 123.746 145.229C123.392 145.173 123.038 145.109 122.689 145.041C122.508 145.007 122.327 144.977 122.146 144.938C121.641 144.835 121.141 144.72 120.649 144.596C120.455 144.549 120.27 144.489 120.076 144.437C119.761 144.352 119.446 144.266 119.136 144.172C118.894 144.099 118.657 144.022 118.42 143.945C118.166 143.864 117.911 143.778 117.657 143.688C117.402 143.599 117.152 143.509 116.898 143.415C116.669 143.329 116.441 143.239 116.212 143.145C115.949 143.038 115.69 142.935 115.432 142.824C115.238 142.738 115.044 142.649 114.85 142.563C114.19 142.263 113.534 141.951 112.896 141.613C112.866 141.596 112.836 141.583 112.806 141.566C112.508 141.407 112.211 141.241 111.917 141.069C111.771 140.988 111.624 140.907 111.482 140.821C111.197 140.654 110.913 140.479 110.632 140.303C110.49 140.213 110.348 140.124 110.21 140.034C110.011 139.905 109.813 139.773 109.615 139.636C109.718 139.263 109.787 138.874 109.787 138.472C109.787 138.416 109.774 138.369 109.77 138.313C118.092 136.991 125.992 133.987 132.805 129.416C136.169 127.161 141.425 123.609 145.681 117.575C146.1 117.699 146.531 117.789 146.992 117.789C147.078 117.789 147.16 117.768 147.247 117.763C148.976 124.705 148.997 131.055 148.389 136.165C146.354 136.614 144.823 138.412 144.823 140.564C144.823 141.048 144.918 141.502 145.06 141.938C144.608 142.165 144.155 142.392 143.689 142.597C143.59 142.64 143.491 142.687 143.392 142.73L143.396 142.734ZM149.372 142.922C148.062 142.922 146.996 141.865 146.996 140.564C146.996 139.263 148.062 138.206 149.372 138.206C150.683 138.206 151.748 139.263 151.748 140.564C151.748 141.865 150.683 142.922 149.372 142.922ZM154.504 135.052C154.193 135.373 153.874 135.686 153.551 135.994C153.417 136.122 153.288 136.246 153.15 136.37C152.87 136.632 152.576 136.88 152.287 137.132C151.792 136.717 151.214 136.409 150.576 136.234C151.188 130.918 151.136 124.324 149.325 117.134C150.649 116.342 151.541 114.922 151.541 113.278C151.541 111.862 150.869 110.612 149.838 109.786C151.416 105.665 152.141 101.565 152.3 97.7523C153.939 97.1832 155.565 96.5755 157.182 95.9549C157.992 97.2046 159.398 98.0391 161.002 98.0391C161.295 98.0391 161.584 98.0048 161.86 97.9535C161.921 98.099 161.985 98.2402 162.041 98.3857C162.059 98.4242 162.072 98.4627 162.089 98.5012C162.576 99.768 162.99 101.065 163.331 102.396C163.344 102.438 163.352 102.481 163.361 102.524C163.508 103.102 163.633 103.688 163.749 104.279C163.784 104.45 163.814 104.625 163.844 104.796C163.926 105.267 164.003 105.742 164.068 106.217C164.098 106.427 164.124 106.637 164.15 106.851C164.206 107.321 164.245 107.792 164.284 108.267C164.297 108.464 164.318 108.661 164.331 108.862C164.37 109.525 164.396 110.197 164.396 110.869C164.396 111.541 164.374 112.191 164.335 112.842C164.323 113.052 164.301 113.261 164.288 113.471C164.254 113.916 164.215 114.357 164.167 114.798C164.141 115.037 164.107 115.277 164.077 115.517C164.021 115.927 163.96 116.338 163.887 116.745C163.848 116.98 163.805 117.215 163.762 117.451C163.68 117.875 163.589 118.294 163.49 118.709C163.443 118.914 163.4 119.124 163.348 119.33C163.214 119.86 163.068 120.387 162.908 120.909C162.882 120.99 162.861 121.076 162.835 121.157C162.645 121.765 162.438 122.364 162.214 122.954C162.158 123.108 162.093 123.258 162.033 123.412C161.865 123.849 161.688 124.281 161.498 124.705C161.412 124.901 161.321 125.09 161.235 125.287C161.058 125.672 160.877 126.053 160.687 126.425C160.588 126.618 160.489 126.814 160.39 127.003C160.187 127.384 159.976 127.76 159.76 128.132C159.661 128.304 159.566 128.471 159.467 128.642C159.2 129.087 158.919 129.523 158.635 129.956C158.579 130.041 158.527 130.131 158.467 130.212C158.109 130.739 157.738 131.257 157.354 131.761C157.298 131.834 157.242 131.903 157.186 131.975C156.863 132.399 156.526 132.814 156.181 133.221C156.065 133.358 155.948 133.49 155.828 133.623C155.53 133.961 155.228 134.295 154.922 134.624C154.788 134.766 154.65 134.907 154.517 135.048L154.504 135.052Z" fill="#FF6600"/>
</g>
<g clip-path="url(#clip2_1498_593)">
<path d="M448.782 200.914H435.186C432.952 200.914 431.134 202.717 431.134 204.934V205.843H433.213V204.934C433.213 203.856 434.097 202.976 435.186 202.976H448.782C449.869 202.976 450.756 203.853 450.756 204.934V212.011C450.756 213.089 449.872 213.969 448.782 213.969H448.107V216.031H448.782C451.017 216.031 452.835 214.228 452.835 212.011V204.934C452.835 202.717 451.017 200.914 448.782 200.914Z" fill="#FF6600"/>
<path d="M418.524 244.714H412.684V250.235H418.524V244.714Z" fill="#FF6600"/>
<path d="M416.512 249.297H406.985C406.63 249.297 406.342 249.652 406.342 250.089C406.342 250.526 406.63 250.882 406.985 250.882H416.512V249.297Z" fill="#FF6600"/>
<path d="M424.225 249.297H416.047V250.882H424.225C424.58 250.882 424.868 250.526 424.868 250.089C424.868 249.652 424.58 249.297 424.225 249.297Z" fill="#FF6600"/>
<path d="M401.171 243.808C400.945 243.901 400.698 243.954 400.44 243.954H399.732V243.808H397.691V243.954H387.087C386.018 243.954 385.152 243.088 385.152 242.034V239.968C385.152 239.732 385.202 239.508 385.278 239.298V236.457C385.237 236.478 385.193 236.495 385.152 236.519V235.082C385.152 234.846 385.202 234.622 385.278 234.415V231.572C383.992 232.227 383.108 233.556 383.108 235.085V236.023H381.866C379.673 236.023 377.887 237.792 377.887 239.971V246.92C377.887 249.099 379.676 250.867 381.866 250.867H395.753C397.95 250.867 399.732 249.099 399.732 246.92V245.981H400.44C401.987 245.981 403.332 245.096 403.987 243.811H401.171V243.808ZM397.691 246.917C397.691 247.977 396.819 248.842 395.75 248.842H381.863C380.794 248.842 379.928 247.977 379.928 246.917V239.968C379.928 238.908 380.794 238.042 381.863 238.042L383.611 238.051C383.29 238.616 383.108 239.269 383.108 239.968V242.034C383.108 244.21 384.897 245.979 387.087 245.979H397.691V246.917Z" fill="#FF6600"/>
<path d="M444.162 246.025H387.025C384.832 246.025 383.046 244.254 383.046 242.078V209.803C383.046 207.626 384.832 205.855 387.025 205.855H444.162C446.355 205.855 448.141 207.626 448.141 209.803V242.078C448.141 244.254 446.355 246.025 444.162 246.025ZM387.025 208.072C386.062 208.072 385.281 208.85 385.281 209.803V242.078C385.281 243.033 386.065 243.808 387.025 243.808H444.162C445.125 243.808 445.906 243.03 445.906 242.078V209.803C445.906 208.847 445.122 208.072 444.162 208.072H387.025Z" fill="#FF6600"/>
<path d="M433.29 206.49C433.672 206.277 434.089 206.137 434.521 206.062H433.895C433.701 206.126 433.511 206.201 433.328 206.295V206.062H433.176V206.554L433.29 206.49Z" fill="#FF6600"/>
<path d="M448.14 214.027V213.872H448.093V209.913C448.093 208.127 446.928 206.609 445.312 206.062H444.71C446.546 206.4 447.941 207.996 447.941 209.913V214.027H448.143H448.14Z" fill="#FF6600"/>
<path d="M448.14 215.927H447.938V216.952C447.938 219.114 446.164 220.874 443.988 220.874H429.925C427.746 220.874 425.975 219.114 425.975 216.952V209.917C425.975 207.999 427.37 206.403 429.206 206.065H428.604C426.989 206.613 425.823 208.131 425.823 209.917V216.952C425.823 219.199 427.664 221.025 429.928 221.025H443.991C446.255 221.025 448.096 219.199 448.096 216.952V216.081H448.143V215.93L448.14 215.927Z" fill="#FF6600"/>
<path d="M427.887 209.916V216.952C427.887 218.068 428.8 218.974 429.925 218.974H443.988C445.112 218.974 446.026 218.068 446.026 216.952V215.926H435.213C433.034 215.926 431.264 214.167 431.264 212.005V209.916C431.264 209.249 431.437 208.59 431.763 208.011L431.828 207.897L429.928 207.891C428.803 207.891 427.89 208.797 427.89 209.913L427.887 209.916ZM429.925 208.046H431.563C431.264 208.623 431.108 209.266 431.108 209.916V212.005C431.108 214.251 432.949 216.078 435.213 216.078H445.87V216.949C445.87 217.98 445.024 218.819 443.988 218.819H429.925C428.885 218.819 428.042 217.98 428.042 216.949V209.913C428.042 208.882 428.888 208.043 429.925 208.043V208.046Z" fill="#FF6600"/>
<path d="M446.026 209.916C446.026 208.8 445.113 207.894 443.988 207.894H435.214C434.089 207.894 433.176 208.8 433.176 209.916V212.005C433.176 213.121 434.089 214.027 435.214 214.027H446.026V209.913V209.916ZM445.873 213.875H435.217C434.177 213.875 433.331 213.036 433.331 212.005V209.916C433.331 208.885 434.177 208.046 435.217 208.046H443.991C445.031 208.046 445.873 208.885 445.873 209.916V213.875Z" fill="#FF6600"/>
<path d="M383.717 238.1L383.779 237.99H383.042V238.138H383.524C383.23 238.704 383.074 239.333 383.074 239.971V242.022C383.074 244.227 384.883 246.022 387.106 246.022H397.572V246.045H397.725V245.873H387.109C384.968 245.873 383.23 244.146 383.23 242.022V239.971C383.23 239.315 383.4 238.669 383.72 238.1H383.717Z" fill="#FF6600"/>
<path d="M400.384 244.012C401.488 244.012 402.386 243.12 402.386 242.025V235.114C402.386 234.019 401.488 233.127 400.384 233.127H387.111C386.006 233.127 385.108 234.019 385.108 235.114V236.673L385.219 236.612C385.795 236.291 386.447 236.125 387.108 236.125H395.723C397.864 236.125 399.603 237.853 399.603 239.977V244.015H400.381L400.384 244.012ZM395.726 235.974H387.111C386.468 235.974 385.83 236.128 385.261 236.419V235.117C385.261 234.106 386.092 233.282 387.111 233.282H400.387C401.406 233.282 402.237 234.106 402.237 235.117V242.028C402.237 243.039 401.406 243.863 400.387 243.863H399.758V239.974C399.758 237.768 397.949 235.974 395.726 235.974Z" fill="#FF6600"/>
<path d="M400.382 231.114H387.109C384.886 231.114 383.077 232.909 383.077 235.114V235.974H383.042V236.125H383.227V235.117C383.227 232.993 384.968 231.266 387.106 231.266H400.382C402.523 231.266 404.261 232.993 404.261 235.117V242.028C404.261 244.152 402.52 245.879 400.382 245.879H399.604V246.051H399.757V246.028H400.385C402.608 246.028 404.417 244.233 404.417 242.028V235.117C404.417 232.912 402.608 231.117 400.385 231.117L400.382 231.114Z" fill="#FF6600"/>
<path d="M385.108 242.025C385.108 243.121 386.006 244.012 387.111 244.012H397.729V239.974C397.729 238.879 396.831 237.987 395.726 237.987H387.111C386.006 237.987 385.108 238.879 385.108 239.974V242.025ZM385.261 239.974C385.261 238.963 386.092 238.139 387.111 238.139H395.726C396.745 238.139 397.576 238.963 397.576 239.974V243.863H387.111C386.092 243.863 385.261 243.039 385.261 242.028V239.977V239.974Z" fill="#FF6600"/>
</g>
<g clip-path="url(#clip3_1498_593)">
<path d="M52.1567 276.69C45.4878 278.332 39.7068 282.581 36.0592 288.534C34.1872 291.542 32.9484 294.924 32.4116 298.454C31.8817 302.259 32.0606 306.134 32.9347 309.868C34.4487 316.963 37.5733 323.628 41.2208 329.814C44.3591 335.204 47.8759 340.354 51.7437 345.222C52.9412 346.716 54.1387 348.21 55.3362 349.598C56.0107 350.345 56.7953 351.514 57.7312 351.838C57.8964 351.916 58.0754 351.972 58.2543 352C58.5021 351.979 58.7498 351.923 58.9838 351.838C59.4518 351.599 59.8785 351.275 60.2364 350.873C60.3947 350.647 60.5667 350.436 60.7594 350.232C61.7986 349.055 62.7897 347.829 63.7807 346.603C67.4971 341.953 70.9107 337.057 73.9939 331.935C77.6896 325.749 81.0275 319.133 82.8513 312.094C83.9456 308.269 84.3654 304.281 84.1039 300.307C83.7597 296.122 82.4384 292.078 80.2498 288.52C79.2106 286.822 77.9856 285.244 76.6023 283.828C71.6608 278.825 64.992 276.007 58.0409 276C56.0589 276.014 54.0837 276.247 52.1567 276.69ZM55.3362 319.619C49.3143 318.534 44.3178 314.173 42.3151 308.262C40.2986 302.202 41.7232 295.481 46.0109 290.824C50.6426 285.899 57.7175 284.243 63.9803 286.611C71.4681 289.556 75.9484 297.545 74.6615 305.648C74.4963 306.592 74.2554 307.522 73.932 308.424C73.932 308.367 73.987 308.318 73.987 308.262C74.1453 307.832 74.2417 307.465 73.8838 308.579C71.3993 315.314 65.0814 319.802 58.0478 319.83C57.1394 319.837 56.2309 319.767 55.3362 319.619ZM73.8838 308.579C73.8838 308.522 73.8975 308.459 73.9388 308.417C73.8907 308.579 73.8356 308.684 73.8907 308.579H73.8838Z" fill="#FF6600"/>
<path d="M58.1382 296.059C55.4129 296.08 52.9766 297.834 52.0406 300.455C51.1322 303.09 51.9305 306.043 54.0296 307.832C56.1493 309.601 59.1362 309.826 61.483 308.396C63.8023 306.944 65.0067 304.154 64.5043 301.421C63.8849 298.335 61.2215 296.094 58.1451 296.066" fill="#FF6600"/>
</g>
<g clip-path="url(#clip4_1498_593)">
<path d="M324.761 400.785H297.339C295.827 400.785 294.604 399.584 294.604 398.106V345.013C294.604 343.54 295.832 342.339 297.339 342.339H300.211C300.714 342.339 301.123 342.739 301.123 343.23C301.123 343.721 300.714 344.121 300.211 344.121H297.339C296.831 344.121 296.422 344.522 296.422 345.018V398.116C296.422 398.613 296.831 399.013 297.339 399.013H324.755C325.263 399.013 325.673 398.613 325.673 398.116V345.013C325.673 344.516 325.263 344.116 324.755 344.116H321.883C321.381 344.116 320.971 343.716 320.971 343.225C320.971 342.734 321.381 342.333 321.883 342.333H324.755C326.268 342.333 327.496 343.534 327.496 345.008V398.106C327.496 399.584 326.268 400.785 324.755 400.785H324.761Z" fill="#FF6600"/>
<path d="M321.545 369.643H300.556C299.868 369.643 299.305 369.099 299.305 368.421V359.127C299.305 358.455 299.862 357.905 300.556 357.905H321.55C322.238 357.905 322.801 358.449 322.801 359.127V368.421C322.801 369.093 322.244 369.643 321.55 369.643H321.545ZM302.374 367.866H319.727C320.415 367.866 320.977 367.321 320.977 366.643V360.91C320.977 360.238 320.42 359.688 319.727 359.688H302.374C301.686 359.688 301.123 360.232 301.123 360.91V366.643C301.123 367.316 301.68 367.866 302.374 367.866Z" fill="#FF6600"/>
<path d="M321.888 351.712H300.211C299.708 351.712 299.299 351.312 299.299 350.821C299.299 350.33 299.708 349.93 300.211 349.93H321.883C322.385 349.93 322.794 350.33 322.794 350.821C322.794 351.312 322.385 351.712 321.883 351.712H321.888Z" fill="#FF6600"/>
<path d="M321.889 337.033C321.387 337.033 320.977 336.633 320.977 336.142V333.078C320.977 331.209 319.421 329.693 317.515 329.693H304.591C302.68 329.693 301.129 331.215 301.129 333.078V336.142C301.129 336.633 300.719 337.033 300.217 337.033C299.715 337.033 299.305 336.633 299.305 336.142V333.078C299.305 330.232 301.675 327.916 304.585 327.916H317.51C320.426 327.916 322.795 330.232 322.795 333.083V336.147C322.795 336.638 322.386 337.038 321.883 337.038L321.889 337.033Z" fill="#FF6600"/>
<path d="M321.888 348.232C321.386 348.232 320.976 347.832 320.976 347.341V336.147C320.976 335.656 321.386 335.256 321.888 335.256C322.39 335.256 322.8 335.656 322.8 336.147V347.346C322.8 347.837 322.39 348.238 321.888 348.238V348.232Z" fill="#FF6600"/>
<path d="M300.211 348.232C299.708 348.232 299.299 347.832 299.299 347.341V336.147C299.299 335.656 299.708 335.255 300.211 335.255C300.713 335.255 301.123 335.656 301.123 336.147V347.346C301.123 347.837 300.713 348.238 300.211 348.238V348.232Z" fill="#FF6600"/>
<path d="M317.853 338.18H304.241C303.739 338.18 303.329 337.78 303.329 337.289C303.329 336.798 303.739 336.397 304.241 336.397H317.853C318.356 336.397 318.765 336.798 318.765 337.289C318.765 337.78 318.356 338.18 317.853 338.18Z" fill="#FF6600"/>
<path d="M315.16 342.633H306.937C306.435 342.633 306.025 342.232 306.025 341.741C306.025 341.25 306.435 340.85 306.937 340.85H315.16C315.663 340.85 316.072 341.25 316.072 341.741C316.072 342.232 315.663 342.633 315.16 342.633Z" fill="#FF6600"/>
<path d="M304.649 377.853H303.612C303.25 377.853 302.957 378.14 302.957 378.494V378.99C302.957 379.344 303.25 379.631 303.612 379.631H304.649C305.011 379.631 305.304 379.344 305.304 378.99V378.494C305.304 378.14 305.011 377.853 304.649 377.853Z" fill="#FF6600"/>
<path d="M311.567 377.853H310.53C310.168 377.853 309.875 378.14 309.875 378.494V378.99C309.875 379.344 310.168 379.631 310.53 379.631H311.567C311.929 379.631 312.222 379.344 312.222 378.99V378.494C312.222 378.14 311.929 377.853 311.567 377.853Z" fill="#FF6600"/>
<path d="M318.485 377.853H317.447C317.085 377.853 316.792 378.14 316.792 378.494V378.99C316.792 379.344 317.085 379.631 317.447 379.631H318.485C318.847 379.631 319.14 379.344 319.14 378.99V378.494C319.14 378.14 318.847 377.853 318.485 377.853Z" fill="#FF6600"/>
<path d="M304.649 383.693H303.612C303.25 383.693 302.957 383.98 302.957 384.334V384.83C302.957 385.184 303.25 385.471 303.612 385.471H304.649C305.011 385.471 305.304 385.184 305.304 384.83V384.334C305.304 383.98 305.011 383.693 304.649 383.693Z" fill="#FF6600"/>
<path d="M311.567 383.693H310.53C310.168 383.693 309.875 383.98 309.875 384.334V384.83C309.875 385.184 310.168 385.471 310.53 385.471H311.567C311.929 385.471 312.222 385.184 312.222 384.83V384.334C312.222 383.98 311.929 383.693 311.567 383.693Z" fill="#FF6600"/>
<path d="M318.485 383.693H317.447C317.085 383.693 316.792 383.98 316.792 384.334V384.83C316.792 385.184 317.085 385.471 317.447 385.471H318.485C318.847 385.471 319.14 385.184 319.14 384.83V384.334C319.14 383.98 318.847 383.693 318.485 383.693Z" fill="#FF6600"/>
<path d="M304.649 389.533H303.612C303.25 389.533 302.957 389.82 302.957 390.174V390.67C302.957 391.024 303.25 391.311 303.612 391.311H304.649C305.011 391.311 305.304 391.024 305.304 390.67V390.174C305.304 389.82 305.011 389.533 304.649 389.533Z" fill="#FF6600"/>
<path d="M311.567 389.533H310.53C310.168 389.533 309.875 389.82 309.875 390.174V390.67C309.875 391.024 310.168 391.311 310.53 391.311H311.567C311.929 391.311 312.222 391.024 312.222 390.67V390.174C312.222 389.82 311.929 389.533 311.567 389.533Z" fill="#FF6600"/>
<path d="M318.485 389.533H317.447C317.085 389.533 316.792 389.82 316.792 390.174V390.67C316.792 391.024 317.085 391.311 317.447 391.311H318.485C318.847 391.311 319.14 391.024 319.14 390.67V390.174C319.14 389.82 318.847 389.533 318.485 389.533Z" fill="#FF6600"/>
<path d="M333.022 392.554H326.59C326.087 392.554 325.678 392.154 325.678 391.663V354.526C325.678 354.035 326.087 353.634 326.59 353.634H333.022C334.802 353.634 336.243 355.049 336.243 356.784V389.4C336.243 391.14 334.796 392.549 333.022 392.549V392.554ZM327.501 390.777H333.022C333.797 390.777 334.425 390.163 334.425 389.405V356.789C334.425 356.031 333.797 355.417 333.022 355.417H327.501V390.777Z" fill="#FF6600"/>
<path d="M330.958 382.839C330.456 382.839 330.046 382.438 330.046 381.947V364.236C330.046 363.744 330.456 363.344 330.958 363.344C331.461 363.344 331.87 363.744 331.87 364.236V381.947C331.87 382.438 331.461 382.839 330.958 382.839Z" fill="#FF6600"/>
<path d="M319.142 364.962V362.597C319.142 361.981 318.631 361.481 318 361.481H304.093C303.463 361.481 302.952 361.981 302.952 362.597V364.962C302.952 365.578 303.463 366.077 304.093 366.077H318C318.631 366.077 319.142 365.578 319.142 364.962Z" fill="#FF6600"/>
</g>
<g clip-path="url(#clip5_1498_593)">
<path d="M332.068 85.0955C332.002 84.5746 331.871 84.068 331.679 83.5856C331.358 82.7799 330.865 82.041 330.22 81.4117C329.859 81.0599 329.463 80.7546 329.039 80.4993C328.374 80.0985 327.642 79.82 326.871 79.6763C326.469 79.601 326.056 79.5624 325.636 79.5624C324.892 79.5624 324.162 79.6534 323.46 79.8304C322.364 80.1063 321.337 80.591 320.428 81.2638C320.116 81.4952 319.818 81.7484 319.536 82.023C318.978 82.5672 318.505 83.1736 318.126 83.8255C316.945 81.3148 315.245 78.9731 313.07 76.8633C312.917 76.7144 312.145 76.0537 310.358 74.5307C309.875 74.1193 309.381 73.6975 309.129 73.4809C308.314 71.984 307.277 70.6178 306.033 69.406C304.423 67.8362 302.546 66.6031 300.457 65.7418C298.293 64.8497 295.996 64.3974 293.628 64.3974C291.26 64.3974 288.962 64.8497 286.799 65.7418C286.099 66.0301 285.424 66.3599 284.774 66.7304C283.447 66.964 280.742 67.5325 278.275 68.098C277.862 68.1929 277.442 68.2442 277.024 68.2537C276.977 68.2547 276.929 68.2554 276.881 68.2554C275.85 68.2554 274.829 68.0027 273.921 67.5263C273.382 67.2432 272.882 66.8812 272.444 66.4467C270.203 64.2246 267.341 62.7671 264.165 62.2317C263.247 62.0769 262.311 62 261.368 62C259.213 62 257.019 62.4019 254.904 63.1938C254.606 63.3054 254.371 63.5168 254.229 63.7773C254.108 63.9998 254.056 64.2587 254.092 64.5221C254.109 64.652 254.146 64.7751 254.201 64.889C254.386 65.2774 254.77 65.5559 255.225 65.6043C261.008 66.2176 263.549 70.4018 264.046 74.0692C263.672 74.3369 263.307 74.6112 262.95 74.8913C259.868 77.3146 257.454 80.1907 255.878 83.3228H251.72C249.811 83.3228 248.244 84.7771 248.124 86.6084C248.119 86.6833 248.116 86.7593 248.116 86.8355V97.5758C248.116 98.5939 248.563 99.5124 249.276 100.154C249.919 100.734 250.778 101.088 251.72 101.088H255.877C256.22 101.769 256.602 102.438 257.022 103.094C257.642 104.061 258.346 104.999 259.127 105.9C260.24 107.182 261.3 108.73 262.11 110.409C263.737 113.78 264.359 117.678 262.392 120.999L262.317 121.124C262.087 121.511 262.087 121.988 262.317 122.375C262.546 122.762 262.969 123 263.428 123H277.753C278.391 123 278.932 122.543 279.023 121.927L279.199 120.728L279.799 116.636C279.846 116.644 279.892 116.651 279.939 116.658C280.782 116.794 281.633 116.904 282.489 116.989C283.94 117.134 285.407 117.207 286.879 117.207C289.267 117.207 291.643 117.015 293.959 116.636L294.014 117.008L294.735 121.927C294.825 122.543 295.367 123 296.005 123H310.33C310.788 123 311.212 122.761 311.441 122.375C311.588 122.126 311.64 121.841 311.599 121.566C311.575 121.413 311.523 121.263 311.441 121.124C311.333 120.943 311.234 120.76 311.141 120.576C310.744 119.785 310.481 118.966 310.333 118.134C310.14 117.041 310.144 115.925 310.301 114.816C310.752 111.638 312.463 108.518 314.393 106.183C314.487 106.068 314.582 105.956 314.678 105.845C316.955 103.206 318.535 100.288 319.36 97.2292C319.803 95.5878 320.028 93.906 320.028 92.206C320.028 90.8047 319.876 89.4168 319.574 88.0512C319.576 88.0241 319.577 87.9966 319.577 87.9691C319.577 87.2426 319.712 86.5462 319.96 85.9025C320.143 85.4257 320.388 84.9777 320.685 84.5683C321.201 83.8566 321.875 83.2607 322.656 82.829C323.137 82.563 323.659 82.3591 324.209 82.2292C324.584 82.1405 324.973 82.0862 325.371 82.0698C325.459 82.0659 325.547 82.0639 325.635 82.0639C326.148 82.0639 326.637 82.1601 327.086 82.3359C327.404 82.4599 327.701 82.6232 327.972 82.8202C328.254 83.0254 328.507 83.2669 328.723 83.5375C329.241 84.1845 329.549 84.9977 329.549 85.8793C329.549 85.9323 329.547 85.9847 329.544 86.0367C329.503 86.578 329.257 87.0646 328.882 87.4219C328.489 87.796 327.954 88.0293 327.364 88.0362C327.001 88.03 326.679 87.8526 326.482 87.5836C326.351 87.4069 326.275 87.1903 326.275 86.9566C326.275 86.7753 326.236 86.6028 326.164 86.4474C325.964 86.0105 325.515 85.7059 324.992 85.7059C324.952 85.7059 324.912 85.7075 324.873 85.7111C324.483 85.7461 324.143 85.9513 323.933 86.2501C323.792 86.451 323.709 86.6945 323.709 86.9566C323.709 88.8936 325.295 90.4765 327.268 90.536C327.29 90.537 327.313 90.5377 327.336 90.5377H327.383C327.4 90.5377 327.417 90.5377 327.434 90.5367C330.024 90.486 332.116 88.4161 332.116 85.8793C332.116 85.6152 332.099 85.3534 332.067 85.0959L332.068 85.0955ZM307.488 75.962C308.208 77.6703 308.606 79.5399 308.606 81.4981C308.606 89.5481 301.887 96.097 293.627 96.097C286.967 96.097 281.309 91.8382 279.368 85.968C279.367 85.967 279.366 85.9667 279.367 85.966C278.901 84.5572 278.649 83.0558 278.649 81.4978C278.649 77.5957 280.228 74.046 282.797 71.4241L282.797 71.4234C285.527 68.6369 289.373 66.8986 293.628 66.8986C294.171 66.8986 294.708 66.9267 295.237 66.9824C295.239 66.9824 295.242 66.983 295.244 66.9833C300.791 67.5658 305.441 71.1122 307.487 75.9607C307.487 75.9607 307.488 75.9614 307.488 75.9617L307.488 75.962ZM316.902 96.4998C316.902 96.4998 316.902 96.5005 316.902 96.5008C316.179 99.2376 314.767 101.859 312.715 104.235C312.532 104.448 312.352 104.663 312.177 104.881C311.173 106.13 310.306 107.462 309.608 108.822C308.919 110.161 308.394 111.527 308.06 112.867C307.678 114.401 307.543 115.899 307.65 117.329C307.676 117.672 307.716 118.012 307.77 118.347C307.889 119.087 308.075 119.805 308.33 120.499H297.12L296.38 115.458L296.311 114.992C296.262 114.651 296.07 114.346 295.781 114.147C295.563 113.997 295.304 113.919 295.042 113.919C294.957 113.919 294.872 113.927 294.788 113.943C292.22 114.449 289.56 114.705 286.881 114.705C284.736 114.705 282.603 114.541 280.521 114.216C280.119 114.154 279.72 114.085 279.323 114.01C279.206 113.989 279.09 113.966 278.973 113.943C278.889 113.926 278.804 113.919 278.72 113.919C278.456 113.919 278.198 113.997 277.98 114.147C277.691 114.346 277.499 114.651 277.449 114.992L276.729 119.905L276.641 120.499H265.457C265.808 119.573 266.036 118.6 266.137 117.59C266.174 117.218 266.194 116.841 266.197 116.46C266.206 115.282 266.053 114.063 265.738 112.823C265 109.921 263.349 106.889 261.087 104.284C260.071 103.113 259.205 101.877 258.501 100.594C258.3 100.227 258.112 99.8561 257.938 99.482C257.914 99.4319 257.891 99.3815 257.868 99.3312C257.662 98.8789 257.203 98.5876 256.695 98.5876H251.714C251.144 98.584 250.683 98.1315 250.683 97.5758V86.8355C250.683 86.2776 251.148 85.8237 251.72 85.8237H256.695C257.202 85.8237 257.662 85.5324 257.867 85.0802C259.44 81.6228 262.171 78.4678 265.777 75.9342C265.894 75.8521 266.011 75.7709 266.13 75.6904C266.42 75.4928 266.61 75.1897 266.663 74.8566C266.677 74.7666 266.682 74.6747 266.675 74.582C266.496 71.9677 265.548 69.4976 263.99 67.555C263.856 67.3865 263.716 67.2219 263.571 67.0616C263.318 66.7795 263.051 66.5111 262.773 66.2572C262.035 65.5824 261.212 65.0078 260.318 64.5385C260.663 64.5146 261.006 64.5028 261.346 64.5028C264.866 64.5028 268.167 65.7738 270.613 68.1997C271.666 69.244 272.983 70.0117 274.423 70.4198C275.218 70.6453 276.042 70.7585 276.865 70.7585C277.072 70.7585 277.278 70.7513 277.485 70.7372C277.947 70.7051 278.408 70.6374 278.862 70.533C278.878 70.5294 278.894 70.5255 278.911 70.5219C279.431 70.4024 279.961 70.2836 280.486 70.1675C279.221 71.5576 278.206 73.1258 277.462 74.8412C276.547 76.9503 276.083 79.1897 276.083 81.4978C276.083 83.3281 276.375 85.1152 276.952 86.828C276.952 86.829 276.952 86.8296 276.953 86.8306C277.103 87.277 277.273 87.7184 277.462 88.154C278.345 90.1905 279.611 92.0191 281.221 93.5889C282.832 95.1587 284.708 96.3918 286.797 97.2531C288.218 97.8386 289.695 98.2345 291.212 98.4378C291.213 98.4378 291.214 98.4378 291.215 98.4378C292.009 98.5441 292.814 98.5971 293.626 98.5971C295.995 98.5971 298.292 98.1446 300.456 97.2525C302.545 96.3915 304.421 95.1584 306.032 93.5883C306.258 93.3677 306.478 93.1422 306.69 92.9115C306.691 92.9105 306.692 92.9096 306.693 92.9089C307.992 91.4985 309.032 89.9028 309.792 88.1533C310.707 86.0442 311.171 83.8049 311.171 81.4971C311.171 80.4107 311.068 79.3392 310.864 78.2898C311.068 78.4658 311.213 78.5925 311.262 78.6386C311.435 78.8062 311.604 78.9753 311.77 79.1455C313.684 81.1126 315.134 83.2571 316.091 85.5187C316.091 85.5193 316.091 85.5197 316.091 85.52C316.997 87.6602 317.461 89.9058 317.461 92.2047C317.461 93.6547 317.272 95.092 316.901 96.4988L316.902 96.4998Z" fill="#FF6600"/>
<path d="M269.383 82.6817C266.896 82.6817 264.874 84.6531 264.874 87.0764C264.874 87.5067 264.937 87.9226 265.056 88.3156C265.606 90.1374 267.338 91.4713 269.383 91.4713C271.869 91.4713 273.892 89.5 273.892 87.0764C273.892 86.9667 273.887 86.8578 273.88 86.7501C273.708 84.4787 271.756 82.6814 269.383 82.6814V82.6817ZM269.383 85.1826C270.454 85.1826 271.326 86.0324 271.326 87.0764C271.326 87.1189 271.324 87.1611 271.321 87.203C271.254 88.1887 270.41 88.9708 269.382 88.9708C268.597 88.9708 267.919 88.5146 267.613 87.8598C267.501 87.6209 267.439 87.3555 267.439 87.0764C267.439 86.0321 268.311 85.1826 269.382 85.1826H269.383Z" fill="#FF6600"/>
<path d="M294.537 80.0093V74.1273C295.214 74.2589 295.723 74.5154 296.107 74.8519C296.238 74.9667 296.355 75.0904 296.46 75.222C296.695 75.5188 296.866 75.8536 296.993 76.2057C297.039 76.3327 297.079 76.4616 297.115 76.5915H299.36C299.34 76.4073 299.308 76.2142 299.262 76.0165C299.097 75.3211 298.751 74.5685 298.128 73.9231C297.383 73.1502 296.24 72.531 294.537 72.3484V70.4955H292.812V72.3199C289.938 72.5529 287.896 74.3188 287.896 76.9197C287.896 77.7735 288.065 78.4859 288.431 79.0953C289.094 80.2024 290.401 80.9691 292.509 81.6259C292.608 81.657 292.709 81.6877 292.812 81.7182V88.2687C291.318 88.0069 290.121 87.0356 289.775 85.3781H287.505C287.783 87.9117 289.642 89.7979 292.812 90.0682V92.4997H294.536V90.0663C294.686 90.0542 294.833 90.0388 294.976 90.0208C295.341 89.9746 295.687 89.9092 296.014 89.8248C296.901 89.5957 297.648 89.2275 298.234 88.7288C299.214 87.8966 299.749 86.7002 299.749 85.1831C299.749 84.8385 299.723 84.5073 299.666 84.1892C299.338 82.374 297.982 80.9936 294.536 80.0093H294.537ZM290.37 77.746C290.235 77.4263 290.179 77.0709 290.179 76.6704C290.179 76.2698 290.248 75.8876 290.402 75.5404C290.512 75.2949 290.663 75.0685 290.862 74.8699C291.115 74.6169 291.445 74.4088 291.864 74.2625C292.141 74.1663 292.456 74.0969 292.813 74.0599V79.5135C291.405 79.0324 290.68 78.4837 290.37 77.7457V77.746ZM294.537 88.2959V82.2283C296.361 82.8642 297.113 83.6329 297.333 84.6575C297.383 84.8957 297.405 85.1474 297.405 85.4144C297.405 87.1652 296.396 88.088 294.537 88.2959Z" fill="#FF6600"/>
</g>
</g>
<defs>
<clipPath id="clip0_1498_593">
<rect width="504.886" height="457" fill="white"/>
</clipPath>
<clipPath id="clip1_1498_593">
<rect width="78.0752" height="73.9112" fill="white" transform="translate(88.4854 73.9112)"/>
</clipPath>
<clipPath id="clip2_1498_593">
<rect width="74.9522" height="49.9681" fill="white" transform="translate(377.884 200.914)"/>
</clipPath>
<clipPath id="clip3_1498_593">
<rect width="52.0501" height="75.9932" fill="white" transform="translate(32.1172 276)"/>
</clipPath>
<clipPath id="clip4_1498_593">
<rect width="41.6401" height="72.8702" fill="white" transform="translate(294.604 327.916)"/>
</clipPath>
<clipPath id="clip5_1498_593">
<rect width="84" height="61" fill="white" transform="translate(248.117 62)"/>
</clipPath>
</defs>
</svg>
