<?xml version="1.0" encoding="UTF-8" standalone="no"?>
<svg
   version="1.1"
   width="720"
   height="198"
   id="svg5"
   sodipodi:docname="28f29dff-c0e7-41e1-ae0b-984402791cd1.svg"
   xmlns:inkscape="http://www.inkscape.org/namespaces/inkscape"
   xmlns:sodipodi="http://sodipodi.sourceforge.net/DTD/sodipodi-0.dtd"
   xmlns="http://www.w3.org/2000/svg"
   xmlns:svg="http://www.w3.org/2000/svg">
  <defs
     id="defs5" />
  <sodipodi:namedview
     id="namedview5"
     pagecolor="#ffffff"
     bordercolor="#000000"
     borderopacity="0.25"
     inkscape:showpageshadow="2"
     inkscape:pageopacity="0.0"
     inkscape:pagecheckerboard="0"
     inkscape:deskcolor="#d1d1d1" />
  <path
     d="M0 0 C1.17328857 -0.00335861 2.34657715 -0.00671722 3.55541992 -0.01017761 C7.42530381 -0.01965844 11.29514429 -0.02162934 15.16503906 -0.02270508 C16.50425485 -0.02412968 17.84347047 -0.02572584 19.18268585 -0.02749062 C26.19796679 -0.0367288 33.2132288 -0.04082753 40.22851562 -0.04003906 C46.74216042 -0.03943908 53.25572219 -0.04997917 59.769346 -0.06578273 C65.38235539 -0.07891025 70.99533783 -0.08422076 76.60836244 -0.08358365 C79.95151664 -0.08333014 83.29453854 -0.08703632 86.63768768 -0.0967617 C90.37311091 -0.10661023 94.10832303 -0.10366417 97.84375 -0.09765625 C98.93399475 -0.10327576 100.0242395 -0.10889526 101.14752197 -0.11468506 C114.94892711 -0.05856481 125.75263119 2.21919702 136.06347656 11.72729492 C142.84638112 19.47382245 145.27820871 28.14647789 145.35766602 38.20776367 C145.36423721 38.89962265 145.37080841 39.59148163 145.37757874 40.30430603 C145.39721803 42.5846266 145.40895744 44.86488138 145.41894531 47.14526367 C145.42302084 47.92982941 145.42709637 48.71439514 145.43129539 49.5227356 C145.45212296 53.68092582 145.46643522 57.83908344 145.47583008 61.99731445 C145.48684767 66.25930192 145.52120259 70.52076056 145.56100178 74.78256226 C145.58735242 78.08747215 145.59553842 81.39225996 145.59911156 84.69726562 C145.60393529 86.2663121 145.61542643 87.8353547 145.63414955 89.40429688 C145.77429547 101.93343292 144.80503347 114.21172585 136.30175781 124.14135742 C126.26082105 133.6275463 116.56554785 135.50756128 103.18066406 135.14526367 C103.21546875 136.03987305 103.25027344 136.93448242 103.28613281 137.85620117 C103.57053779 150.55962331 101.58969909 159.36574205 93.18066406 169.14526367 C84.04422915 178.14648707 72.76902569 179.74377707 60.43847656 179.6628418 C59.09510545 179.66827584 57.75174031 179.67540563 56.40838623 179.68408203 C52.79256042 179.7021665 49.17719609 179.69531036 45.56136322 179.68256569 C41.7575313 179.67236005 37.953736 179.68185218 34.14990234 179.68811035 C27.76490262 179.69536494 21.38008864 179.68585691 14.99511719 179.66674805 C7.6383049 179.64498339 0.28193621 179.65203633 -7.07486534 179.67405367 C-13.41834466 179.69227045 -19.76169131 179.69473549 -26.10518837 179.68429899 C-29.88202803 179.67809836 -33.65865995 179.67713283 -37.43548584 179.69044495 C-40.98819241 179.70209494 -44.54033327 179.6938136 -48.09297943 179.67086792 C-50.00039415 179.66315227 -51.90785735 179.67485821 -53.81524658 179.68737793 C-64.9317148 179.57932179 -74.61411021 176.93571974 -82.81933594 169.14526367 C-92.62325351 158.59069811 -93.42759195 147.23432953 -93.35058594 133.49291992 C-93.35328651 131.78478271 -93.35717361 130.07664701 -93.36218262 128.36851501 C-93.36805275 124.80216726 -93.35959669 121.23622247 -93.34082031 117.66992188 C-93.31804944 113.12642041 -93.33115753 108.58386532 -93.35511017 104.0403986 C-93.36965075 100.51676973 -93.36492431 96.99336059 -93.354599 93.46972466 C-93.35195355 91.79578982 -93.35512356 90.12183423 -93.36451721 88.44792366 C-93.42359505 74.96337582 -92.06283706 64.40594538 -82.30371094 54.37573242 C-71.65227712 44.81288853 -60.68426773 43.70971608 -46.81933594 44.14526367 C-46.84253906 43.5394043 -46.86574219 42.93354492 -46.88964844 42.30932617 C-47.14986849 30.22768066 -44.43495126 21.87087457 -37.63183594 11.95776367 C-26.93745832 1.26338605 -14.33290218 -0.00591389 0 0 Z M-24.19433594 26.70776367 C-27.1537289 31.14685311 -26.94021894 35.19056816 -26.88183594 40.33276367 C-26.87732422 41.08235352 -26.8728125 41.83194336 -26.86816406 42.60424805 C-26.85639948 44.4512875 -26.83846459 46.2982858 -26.81933594 48.14526367 C-26.0285968 47.9329158 -25.23785767 47.72056793 -24.42315674 47.50178528 C-14.12364822 44.99015284 -4.41269677 44.72080062 6.13378906 44.78198242 C7.92828369 44.78250263 9.72277888 44.78197872 11.51727295 44.7804718 C15.25216334 44.78056084 18.98683479 44.79085251 22.72167969 44.80908203 C27.48464678 44.83183278 32.24729691 44.83229381 37.0103035 44.82556438 C40.70626596 44.82220874 44.40215743 44.82888336 48.09810638 44.83869362 C49.8538043 44.84251346 51.60951015 44.84370735 53.36521149 44.84210777 C80.95101363 44.83790165 80.95101363 44.83790165 91.44628906 54.15698242 C97.87855781 60.98233426 102.18565739 68.9535184 102.38598633 78.45483398 C102.40593155 79.29540344 102.42587677 80.1359729 102.44642639 81.00201416 C102.47149513 82.34909454 102.47149513 82.34909454 102.49707031 83.72338867 C102.51785141 84.64996277 102.53863251 85.57653687 102.56004333 86.53118896 C102.62533367 89.48580639 102.68432837 92.44051135 102.74316406 95.39526367 C102.78636879 97.40048099 102.82998371 99.40568952 102.87402344 101.41088867 C102.98099405 106.32225771 103.08231924 111.23371464 103.18066406 116.14526367 C104.6295166 116.1622804 106.07842656 116.17445879 107.52734375 116.18457031 C108.33419617 116.19186661 109.14104858 116.1991629 109.97235107 116.2066803 C114.75252219 116.07373629 118.49267195 113.91283854 121.75488281 110.49682617 C125.78479824 105.20828386 126.30084552 100.43500367 126.34179688 93.84545898 C126.35140442 92.59355774 126.36101196 91.34165649 126.37091064 90.05181885 C126.37575997 88.69234399 126.38003847 87.332867 126.38378906 85.97338867 C126.38661644 85.2831234 126.38944382 84.59285812 126.39235687 83.88167572 C126.40731391 80.22734702 126.41656482 76.57305743 126.42089844 72.91870117 C126.42637189 69.16533339 126.45038573 65.41233041 126.47887039 61.65907669 C126.49760031 58.75407911 126.50270788 55.84916752 126.50423431 52.94411469 C126.50723906 51.56157186 126.51519297 50.17902975 126.52841949 48.79654694 C126.75511941 36.1390855 126.75511941 36.1390855 121.46191406 24.98901367 C120.87410156 24.54557617 120.28628906 24.10213867 119.68066406 23.64526367 C119.09285156 23.18120117 118.50503906 22.71713867 117.89941406 22.23901367 C114.61879535 20.15134722 111.78752404 20.01542343 108.00762939 19.99809265 C106.9366098 19.99093735 105.86559021 19.98378204 104.76211548 19.97640991 C103.58700409 19.97372101 102.4118927 19.9710321 101.20117188 19.96826172 C99.96352081 19.96169052 98.72586975 19.95511932 97.45071411 19.948349 C93.34506998 19.92859918 89.23946492 19.91694794 85.13378906 19.90698242 C83.71896088 19.90293401 82.3041329 19.89881707 80.88930511 19.89463234 C74.24126776 19.87558436 67.59324148 19.86135297 60.94518209 19.85302037 C53.27830314 19.84325145 45.61171318 19.81693961 37.94493604 19.77651948 C32.01445183 19.74632934 26.08405032 19.73154873 20.15349078 19.72823936 C16.61358229 19.72589199 13.07398266 19.71697314 9.5341568 19.69177818 C5.5819226 19.66410214 1.63006662 19.66833751 -2.32226562 19.67529297 C-4.07278732 19.65607788 -4.07278732 19.65607788 -5.8586731 19.63647461 C-13.83177601 19.68762847 -18.60314123 20.67515885 -24.19433594 26.70776367 Z M-69.81933594 69.14526367 C-74.90780623 76.5593416 -74.40416371 84.33181364 -74.35058594 92.99291992 C-74.353285 94.5341364 -74.35717087 96.0753512 -74.36218262 97.61656189 C-74.3680565 100.83503551 -74.35958245 104.05306292 -74.34082031 107.27148438 C-74.31801211 111.38276393 -74.33117812 115.49299987 -74.35511017 119.60424137 C-74.36960935 122.7828702 -74.36494379 125.9612542 -74.354599 129.13989067 C-74.35194406 130.65524865 -74.35515782 132.17062937 -74.36451721 133.68596077 C-74.58846046 144.62536478 -74.58846046 144.62536478 -69.81933594 154.14526367 C-65.13477931 158.58958662 -60.76648894 160.38985165 -54.33659363 160.41268921 C-53.24744156 160.42121918 -52.15828949 160.42974915 -51.03613281 160.4385376 C-49.85108154 160.43763123 -48.66603027 160.43672485 -47.44506836 160.43579102 C-46.1892244 160.44250824 -44.93338043 160.44922546 -43.63948059 160.45614624 C-40.20131306 160.4737818 -36.76324515 160.47850062 -33.32503676 160.47977781 C-31.17427971 160.48120152 -29.02354781 160.4854753 -26.87279701 160.49077225 C-19.36171492 160.50926543 -11.85070372 160.51744388 -4.33959961 160.51586914 C2.64903672 160.51466838 9.63736389 160.53575945 16.62592202 160.56735647 C22.63630392 160.59355726 28.64658508 160.60423483 34.65702361 160.60295832 C38.24218637 160.60244974 41.82707435 160.60807473 45.41217995 160.62931442 C49.41440385 160.65237867 53.41594062 160.64315282 57.41821289 160.63110352 C58.59719147 160.64234253 59.77617004 160.65358154 60.99087524 160.66516113 C68.96764401 160.60419518 74.69896027 159.62696746 80.55566406 153.77026367 C83.43621712 149.11706258 84.28055393 145.35900263 84.22753906 139.93823242 C84.2173877 138.59088013 84.2173877 138.59088013 84.20703125 137.21630859 C84.19833008 136.53286377 84.18962891 135.84941895 84.18066406 135.14526367 C82.3005085 135.13979523 82.3005085 135.13979523 80.38237 135.13421631 C68.53914578 135.09718964 56.69617973 135.039333 44.85315228 134.96136093 C38.76529081 134.92194161 32.67757281 134.88972578 26.58959961 134.87426758 C20.70850233 134.85906471 14.82779958 134.82455416 8.94687843 134.77695465 C6.70918022 134.76217836 4.47142566 134.75422482 2.23367882 134.75337982 C-25.2110723 134.73260349 -25.2110723 134.73260349 -36.65527344 123.63354492 C-45.11395903 113.90758333 -46.16848332 102.0552116 -46.06933594 89.64526367 C-46.07707031 88.67717773 -46.08480469 87.7090918 -46.09277344 86.71166992 C-46.07173069 78.87324582 -44.73504408 71.71338706 -42.81933594 64.14526367 C-45.82088967 64.00910448 -48.81615694 63.91062387 -51.81933594 63.83276367 C-53.07810547 63.76992187 -53.07810547 63.76992187 -54.36230469 63.70581055 C-60.48539325 63.58714604 -65.45168432 64.5946332 -69.81933594 69.14526367 Z M-24.19433594 70.70776367 C-28.03244952 76.46493405 -27.12003226 83.15556476 -27.19433594 89.83276367 C-27.23171875 91.08766602 -27.26910156 92.34256836 -27.30761719 93.63549805 C-27.36829257 100.03675098 -27.21734475 105.05792507 -23.68115234 110.5078125 C-17.71712563 115.7531216 -11.62794749 116.72433016 -3.91503906 116.59936523 C-2.95802094 116.59994934 -2.00100281 116.60053345 -1.01498413 116.60113525 C2.12352773 116.59836603 5.26106973 116.56732871 8.39941406 116.53588867 C10.58515911 116.52842216 12.77091088 116.52273117 14.95666504 116.51873779 C20.69098609 116.50351386 26.42489762 116.46425971 32.15905762 116.41992188 C38.01776592 116.37889934 43.87654083 116.36071186 49.73535156 116.34057617 C61.21730167 116.29776254 72.69894872 116.22955033 84.18066406 116.14526367 C84.28009488 110.88001922 84.35239605 105.61533024 84.40039062 100.34936523 C84.42041365 98.56085683 84.44764061 96.77241313 84.48242188 94.98413086 C84.53135361 92.40226205 84.55372571 89.82126417 84.57128906 87.23901367 C84.5919342 86.44910034 84.61257935 85.65918701 84.6338501 84.84533691 C84.63633797 78.58550752 83.115128 73.17113842 78.66217041 68.57946777 C73.69800413 64.34084945 70.39727558 63.98962519 64.07836914 63.96826172 C63.2407605 63.96169052 62.40315186 63.95511932 61.54016113 63.948349 C58.76017166 63.928593 55.98023632 63.91694683 53.20019531 63.90698242 C52.25093359 63.90290689 51.30167187 63.89883137 50.32364464 63.89463234 C45.29706412 63.87375942 40.27051099 63.85946434 35.24389648 63.85009766 C30.05644812 63.839045 24.86943011 63.80466177 19.68213367 63.76492596 C15.69033523 63.73875058 11.69863903 63.73040488 7.70676231 63.72681618 C5.7950418 63.72195074 3.88332584 63.71033796 1.97168922 63.69177818 C-0.70924049 63.66737249 -3.38906105 63.66835454 -6.07006836 63.67529297 C-7.24787621 63.65607788 -7.24787621 63.65607788 -8.44947815 63.63647461 C-15.14807057 63.69943628 -19.54619683 65.69266621 -24.19433594 70.70776367 Z "
     fill="#FFF"
     transform="translate(92.8193359375,18.854736328125)"
     id="path1" />
  <path
     d="M0 0 C2.17125701 3.25688551 2.25504094 4.185751 2.2784729 7.95439148 C2.28963638 8.97662811 2.30079987 9.99886475 2.31230164 11.05207825 C2.31446182 12.17273178 2.31662201 13.29338531 2.31884766 14.44799805 C2.32889328 15.62861816 2.3389389 16.80923828 2.34928894 18.02563477 C2.37490275 21.26296545 2.39174465 24.50020041 2.40471697 27.737602 C2.42033806 31.12092069 2.44713151 34.50415028 2.4727478 37.8874054 C2.51955376 44.29402049 2.55628902 50.70065231 2.58942068 57.10735112 C2.62762927 64.40117004 2.67704271 71.69489951 2.72740483 78.98864305 C2.83075168 93.99236261 2.92000308 108.99613642 3 124 C3.68707031 123.96519531 4.37414062 123.93039063 5.08203125 123.89453125 C5.98308594 123.86746094 6.88414062 123.84039062 7.8125 123.8125 C9.15248047 123.76029297 9.15248047 123.76029297 10.51953125 123.70703125 C13 124 13 124 14.76489258 125.38574219 C17.8943293 129.47584608 18.77754536 134.78661104 19.6875 139.75 C18.88800128 143.52944851 18.35691076 143.85001161 15.25 145.875 C7.92064585 149.97400917 -1.50255462 150.54668188 -9.5546875 148.28125 C-15.73397905 145.38980792 -18.59025736 140.72110881 -22 135 C-22.51046875 135.51949219 -23.0209375 136.03898438 -23.546875 136.57421875 C-34.57832851 147.15580802 -46.39908519 149.50836731 -61.08984375 149.2734375 C-74.37482632 148.7580608 -85.68162423 142.80922054 -94.8125 133.3125 C-106.42490617 119.58119324 -109.37130679 103.45967399 -108 86 C-106.03470644 71.75162172 -98.96623198 59.18537416 -87.73828125 50.1875 C-74.65260181 41.05264524 -60.76990032 38.4735976 -45 41 C-38.19750225 42.73807563 -31.97579157 45.33978032 -26 49 C-26.0314209 47.07752441 -26.0314209 47.07752441 -26.06347656 45.11621094 C-26.13588666 40.36030249 -26.1818036 35.60444276 -26.21972656 30.84814453 C-26.23983969 28.78979295 -26.26713397 26.73149848 -26.30175781 24.67333984 C-26.35028883 21.71437487 -26.37297166 18.75616539 -26.390625 15.796875 C-26.41127014 14.87694763 -26.43191528 13.95702026 -26.45318604 13.00921631 C-26.45542199 6.64017039 -26.45542199 6.64017039 -24.18969727 3.45532227 C-21.12634542 1.41934943 -18.29229791 0.86498463 -14.6875 0.1875 C-13.41261719 -0.06644531 -12.13773438 -0.32039063 -10.82421875 -0.58203125 C-6.90527529 -1.01035296 -3.82880399 -0.92747426 0 0 Z M-74 75 C-79.28205697 83.51944672 -80.86211104 91.02414368 -80 101 C-78.11873518 108.91037858 -73.76323984 115.62563091 -67.09765625 120.34765625 C-59.91548839 124.58407239 -53.16824386 124.75210811 -45 124 C-37.57882957 121.85966244 -32.25126905 117.37098259 -28 111 C-23.21654347 102.06852767 -23.40213716 92.58228097 -26 83 C-28.44717169 75.68410975 -33.2807062 70.39791144 -40.16796875 66.8984375 C-52.49435624 62.22968188 -65.38545561 64.90277803 -74 75 Z "
     fill="#FFF"
     transform="translate(701,1)"
     id="path2" />
  <path
     d="M0 0 C0.103125 -1.093125 0.20625 -2.18625 0.3125 -3.3125 C1.19760479 -8.05988024 1.19760479 -8.05988024 4 -10 C7.03521394 -11.01173798 9.19733079 -11.16573514 12.375 -11.1875 C13.31085938 -11.20167969 14.24671875 -11.21585938 15.2109375 -11.23046875 C18.25209581 -10.97916855 20.31949921 -10.45999785 23 -9 C24.69021109 -6.25960363 25.25044364 -4.17502499 25.25396729 -0.97729492 C25.25960693 -0.18664642 25.26524658 0.60400208 25.27105713 1.41860962 C25.26700867 2.27691376 25.26296021 3.1352179 25.25878906 4.01953125 C25.2622937 4.93052582 25.26579834 5.84152039 25.26940918 6.78012085 C25.27821058 9.79099145 25.27238291 12.80162702 25.265625 15.8125 C25.26697211 17.90470424 25.26891302 19.99690817 25.27142334 22.08911133 C25.27437245 26.47382589 25.27008376 30.85845897 25.26074219 35.24316406 C25.24934782 40.86567165 25.25590843 46.48798831 25.26788712 52.11048889 C25.27511143 56.43071941 25.27281514 60.7509046 25.26763153 65.07113647 C25.26629662 67.14439924 25.26793721 69.2176661 25.27259064 71.29092407 C25.27766519 74.18754999 25.26993243 77.08386594 25.25878906 79.98046875 C25.26283752 80.83877289 25.26688599 81.69707703 25.27105713 82.58139038 C25.26541748 83.37203888 25.25977783 84.16268738 25.25396729 84.97729492 C25.25321323 85.6616008 25.25245918 86.34590668 25.25168228 87.0509491 C24.94786272 89.40375596 24.24312936 90.98588455 23 93 C17.93598355 95.73144723 12.60724632 95.57251164 7 95 C4.45121078 93.82755696 2.93702622 92.93702622 1 91 C0.63239269 88.67182036 0.29758419 86.3381615 0 84 C-0.94875 84.886875 -1.8975 85.77375 -2.875 86.6875 C-13.98019003 96.17738966 -26.72284011 97.89943032 -40.79052734 97.1953125 C-53.15792793 96.10206162 -64.34899077 89.67969525 -72.82421875 80.828125 C-83.26588131 67.2558383 -87.37953725 50.88151298 -85.375 33.9375 C-82.80198682 18.80411984 -76.12727533 5.99519933 -63.6953125 -3.28125 C-43.01436397 -16.46910124 -19.46546977 -13.64115598 0 0 Z M-52 24 C-57.13181564 32.51130399 -58.27812068 41.21265194 -57 51 C-54.08755996 60.35101285 -49.08763931 65.82022543 -41 70.875 C-34.27055935 73.39664142 -25.81467834 73.12343276 -19.015625 71.12109375 C-11.32033436 67.58825578 -6.8686107 62.62362556 -3.625 54.875 C-0.94013133 46.69682263 -0.57186498 37.30396814 -3.7734375 29.1953125 C-7.8369046 21.92248285 -13.39201762 16.15739365 -21.3984375 13.5546875 C-33.3900186 10.99792396 -44.45927792 14.05266449 -52 24 Z "
     fill="#FFF"
     transform="translate(469,53)"
     id="path3" />
  <path
     d="M0 0 C0.70511719 0.48597656 1.41023438 0.97195312 2.13671875 1.47265625 C5.35842463 3.92324388 6.82327934 5.5662311 8.375 9.375 C7.81456893 14.79250032 4.84539972 17.35989883 1 21 C0.154375 21.825 -0.69125 22.65 -1.5625 23.5 C-4.80909732 25.49790604 -6.23820601 25.73760666 -10 25 C-12.03216295 23.63937254 -13.89985599 22.13000146 -15.80859375 20.6015625 C-22.80053633 15.49158664 -30.47841709 13.8266527 -39 15 C-47.66419085 17.13465572 -52.67439118 20.43008326 -57.6875 27.8125 C-61.87464534 34.83057694 -63.17349665 42.48370918 -61.46484375 50.515625 C-59.25075653 58.59764829 -55.88018669 64.00849201 -49 69 C-41.80385112 72.95082684 -33.86600282 74.03777912 -25.875 71.9375 C-20.66886049 70.14399739 -16.41004996 67.23764404 -12 64 C-9 62 -9 62 -6.1796875 62.05078125 C-2.22692338 63.23078332 0.07362451 65.29858153 2.875 68.1875 C3.37257813 68.65736328 3.87015625 69.12722656 4.3828125 69.61132812 C6.8247437 72.07003084 7.94722866 73.6756592 8.5078125 77.12109375 C7.57673404 82.3995924 4.16983615 84.89147125 0 88 C-2.58559814 89.58424741 -5.23423716 91.00254513 -7.9375 92.375 C-8.92073242 92.87555908 -8.92073242 92.87555908 -9.92382812 93.38623047 C-23.01433322 99.66980214 -40.3758528 100.3183133 -54.2109375 96.08984375 C-70.14069155 89.86519196 -80.57955361 80.25830444 -87.47265625 64.78515625 C-89.37474319 60.21857097 -90.64843427 55.95249116 -91 51 C-91.07992188 49.9584375 -91.15984375 48.916875 -91.2421875 47.84375 C-91.74523009 34.70546109 -89.04206823 21.6263733 -81 11 C-80.37480469 10.15953125 -79.74960937 9.3190625 -79.10546875 8.453125 C-70.89798611 -1.59685375 -59.71123663 -7.60512933 -47 -10 C-45.1746875 -10.37125 -45.1746875 -10.37125 -43.3125 -10.75 C-27.82178177 -12.24193393 -12.78841539 -8.98100625 0 0 Z "
     fill="#FFF"
     transform="translate(369,52)"
     id="path4" />
  <path
     d="M0 0 C2.35800258 2.54416067 4.0774859 5.11622885 6 8 C6.81791016 7.20335937 6.81791016 7.20335937 7.65234375 6.390625 C17.09596956 -2.45571166 24.97847017 -5.14746919 38 -5 C43.4429379 -4.47211349 47.8573197 -3.77444205 52 0 C53.16990071 6.7269291 50.58208483 13.82544933 48 20 C44.50921965 22.3271869 43.35434007 21.90554591 39.3828125 21.3046875 C32.31011159 20.40030935 26.21165006 20.11771871 20 24 C19.01 24.33 18.02 24.66 17 25 C15.84674977 26.8313222 15.84674977 26.8313222 15 29 C14.72328964 29.62029587 14.44657928 30.24059174 14.16148376 30.87968445 C11.55701078 37.76383818 11.59244625 44.35315718 11.62890625 51.64453125 C11.61597485 53.61123551 11.60302117 55.57793992 11.58873653 57.54463482 C11.55885144 62.35807158 11.56223658 67.17159791 11.56420898 71.98510742 C11.56425018 74.70122597 11.55370957 77.41694601 11.53245544 80.13298035 C11.51372653 82.68264535 11.51189962 85.23250236 11.52870178 87.78218079 C11.51866623 88.9340538 11.50863068 90.08592682 11.49829102 91.27270508 C11.49845718 92.28480545 11.49862335 93.29690582 11.49879456 94.3396759 C10.8635032 97.72800662 9.67268441 98.88731237 7 101 C3.40998391 102.19667203 0.4095161 102.20538881 -3.375 102.25 C-5.33566406 102.28867188 -5.33566406 102.28867188 -7.3359375 102.328125 C-11.43738584 101.96083112 -14.07210537 100.92789463 -17 98 C-17.12486954 95.62798453 -17.18600052 93.28359657 -17.20532227 90.90991211 C-17.21522186 90.16849472 -17.22512146 89.42707733 -17.23532104 88.66319275 C-17.26702466 86.20127607 -17.29172826 83.73934007 -17.31640625 81.27734375 C-17.33696814 79.57482895 -17.3579644 77.87231935 -17.37937927 76.16981506 C-17.43467899 71.68012691 -17.48405328 67.19039208 -17.53222656 62.70062256 C-17.58238406 58.12263822 -17.63810008 53.54472197 -17.69335938 48.96679688 C-17.80103751 39.9779227 -17.90246088 30.9889895 -18 22 C-20.54091693 20.72954153 -21.67487447 21.19303993 -24.4375 21.6875 C-28.73438814 22.19706686 -28.73438814 22.19706686 -30.9375 20.5625 C-33.42956489 14.55222584 -35.42720593 7.51885951 -34 1 C-25.46111419 -7.53888581 -9.40157334 -6.69000845 0 0 Z "
     fill="#FFF"
     transform="translate(540,46)"
     id="path5" />
</svg>
