<svg width="200" height="200" viewBox="0 0 200 200" fill="none" xmlns="http://www.w3.org/2000/svg">
<g clip-path="url(#clip0_1287_1063)">
<path d="M168.82 0H31.18C13.9598 0 0 13.9598 0 31.18V168.82C0 186.04 13.9598 200 31.18 200H168.82C186.04 200 200 186.04 200 168.82V31.18C200 13.9598 186.04 0 168.82 0Z" fill="white"/>
<path d="M79.9807 38.73V153.06L105.851 161.28V65.38C105.851 60.9 107.851 57.88 111.081 58.94C115.301 60.11 116.121 64.24 116.121 68.73V107.03C132.251 114.82 144.941 107.03 144.941 86.47C144.941 65.91 137.511 56.02 115.611 48.49C106.991 45.6 90.9707 40.77 79.9707 38.74" fill="black"/>
<path d="M110.75 144.57L152.37 129.73C157.09 128.04 157.82 125.64 153.98 124.39C150.15 123.14 143.21 123.5 138.49 125.19L110.75 134.97V119.43L112.35 118.89C112.35 118.89 120.37 116.05 131.62 114.8C142.89 113.58 156.69 114.96 167.51 119.08C179.72 122.94 181.09 128.62 178 132.52C174.89 136.44 167.3 139.24 167.3 139.24L110.75 159.55V144.58V144.57Z" fill="black"/>
<path d="M32.5103 142.99C19.9803 139.46 17.8903 132.13 23.6003 127.89C28.8903 123.97 37.8703 121.04 37.8703 121.04L74.9603 107.86V122.88L48.2703 132.44C43.5503 134.13 42.8403 136.53 46.6503 137.77C50.4903 139.03 57.4303 138.67 62.1503 136.98L74.9503 132.34V145.79C74.1303 145.93 73.2303 146.07 72.4003 146.21C59.5903 148.3 45.9503 147.43 32.5103 143" fill="black"/>
</g>
<defs>
<clipPath id="clip0_1287_1063">
<rect width="200" height="200" fill="white"/>
</clipPath>
</defs>
</svg>
