<svg width="200" height="200" viewBox="0 0 200 200" fill="none" xmlns="http://www.w3.org/2000/svg">
<g clip-path="url(#clip0_1287_791)">
<path d="M168.82 0H31.18C13.9598 0 0 13.9598 0 31.18V168.82C0 186.04 13.9598 200 31.18 200H168.82C186.04 200 200 186.04 200 168.82V31.18C200 13.9598 186.04 0 168.82 0Z" fill="white"/>
<path fill-rule="evenodd" clip-rule="evenodd" d="M169.26 114.26L160.92 114.16L159.19 119.85L168.89 119.87L167.1 125.16L149.19 125.13L156.84 99.55L173.78 99.58L172.49 104.35H163.88L162.27 109.46H170.69L169.25 114.26H169.26ZM128.25 147.15C128.57 144.88 129.32 142.7 130.49 140.6C131.67 138.5 133.08 136.81 134.73 135.51C136.38 134.21 138.13 133.25 139.97 132.6C141.82 131.96 143.75 131.63 145.77 131.64C149.36 131.64 152 132.62 153.7 134.57C155.39 136.52 156.02 139.06 155.58 142.17C155.26 144.47 154.52 146.66 153.37 148.78C152.22 150.88 150.84 152.58 149.24 153.85C147.64 155.12 145.9 156.07 144.03 156.72C142.15 157.37 140.19 157.69 138.15 157.69C134.59 157.69 131.94 156.69 130.21 154.72C128.48 152.74 127.83 150.22 128.26 147.16L128.25 147.15ZM146.46 142.61C146.75 140.93 146.74 139.55 146.41 138.46C146.09 137.37 145.32 136.83 144.11 136.83C142.72 136.83 141.36 137.91 140.04 140.08C138.72 142.25 137.85 144.55 137.43 146.97C137.12 148.74 137.16 150.16 137.54 151.21C137.93 152.26 138.7 152.79 139.86 152.79C141.22 152.79 142.55 151.7 143.86 149.52C145.17 147.34 146.03 145.04 146.45 142.61H146.46ZM74.4597 126.33L65.4697 131.03H59.7497L66.1197 126.32H74.4597V126.33ZM67.9197 132.79H74.1897L69.7797 147.25C68.5697 151.18 66.8297 154.05 64.5497 155.89C62.2797 157.72 59.1597 158.63 55.2197 158.63C52.1397 158.63 49.8097 157.93 48.2097 156.55C46.6197 155.16 45.9297 153.15 46.1597 150.51C46.2497 149.47 46.4997 148.3 46.8997 146.96L51.2097 132.77H53.8697H57.4697H59.4897L54.4497 149.27C53.1797 154 58.7997 155.13 60.5697 149.27L65.3997 132.77H67.9197V132.79ZM68.3197 157.86H75.7697L79.8597 141.77L84.8997 157.88H91.9797L99.1697 132.67H92.0397C90.4797 138.45 89.7797 142.14 88.3397 148.36L83.6197 132.64L76.1897 132.53L68.3197 157.85V157.86ZM111.45 132.7L103.84 157.92H95.4797L102.92 132.69H111.44L111.45 132.7ZM126.45 156.95L126.55 152.61C112.01 156.39 117.08 134.02 130.98 137.16L133.07 133.04C132.64 132.79 131.91 132.56 130.89 132.33C129.87 132.1 128.73 131.99 127.47 131.99C123.78 131.99 120.64 132.76 118.06 134.3C115.48 135.84 113.46 137.7 112.02 139.87C110.57 142.04 109.67 144.52 109.3 147.31C108.87 150.63 109.58 153.25 111.43 155.15C113.29 157.06 115.96 158.02 119.45 158.03C120.9 158.03 122.24 157.93 123.48 157.72C124.72 157.51 125.71 157.26 126.45 156.96V156.95ZM33.7397 99.81C36.2897 99.4 39.5297 99.37 42.7997 99.38C46.2597 99.38 48.7897 99.66 50.2497 100.4C54.0297 102.34 55.1997 106.39 51.9997 109.35C50.7697 110.48 48.9897 111.13 46.9897 111.56C49.9697 112.4 52.0897 114.7 51.6397 117.32C50.1397 126.15 33.5097 125.26 26.2197 124.47L33.7397 99.8V99.81ZM38.9297 109.21C46.0297 110.33 48.5797 102.84 40.5997 103.34L38.9297 109.21ZM35.6797 120.27C43.5397 121.52 46.3597 113.12 37.5197 113.69L35.6797 120.27ZM68.6797 99.42H60.0197L52.5597 124.98H61.0497L68.6797 99.42ZM70.6897 99.42H79.3097L73.2897 120.23H82.3197L80.8697 125.03L63.2997 125L70.6897 99.42ZM98.1897 99.46H89.7097L82.0297 125.02H90.5697L93.7797 114.26H100.29L97.1297 125.05H105.78L113.35 99.49H104.61L101.71 109.42H95.2997L98.1897 99.47V99.46ZM128.18 114.2H119.88L117.95 120.06L127.65 119.9L126.03 125.09L108.23 125.06L115.51 99.48L132.62 99.51L131.43 104.18H122.73L121.4 109.33H129.53L128.18 114.2ZM138.44 104.31L132.38 125.11H141.14L146.96 104.33H153.9L155.3 99.56L133.35 99.53L131.96 104.31H138.44Z" fill="#000001"/>
<path fill-rule="evenodd" clip-rule="evenodd" d="M78.6493 44.3C80.6293 43.67 82.8093 43.13 85.2093 42.68L59.1093 42.66C58.2393 43.18 57.4293 43.71 56.6593 44.26L78.6493 44.29V44.3ZM89.8593 84.71L87.1693 97.21L112.229 79.18L87.2293 61.29L90.0793 74.58L60.3193 74.6C68.8193 79.96 78.3893 83.29 89.8593 84.71ZM82.6393 72.65L57.6393 72.61C54.4493 70.07 52.0293 67.3 50.4993 64.44L68.0593 64.47C70.9793 67.6 75.8393 70.48 82.6493 72.65H82.6393ZM66.4593 62.45L49.5693 62.42C48.8893 60.65 48.5693 58.84 48.6193 57.05L64.7493 57.07C64.7393 58.86 65.2993 60.67 66.4593 62.44V62.45ZM65.0193 55.07C65.3693 53.73 66.0493 52.42 67.0793 51.18L50.2593 51.15C49.5693 52.43 49.0993 53.73 48.8493 55.05L65.0193 55.07ZM69.1093 49.16C70.3993 48.1 71.9693 47.1 73.8293 46.2L54.2893 46.17C53.2193 47.13 52.3093 48.12 51.5493 49.13L69.1093 49.16Z" fill="#B8363D"/>
<path fill-rule="evenodd" clip-rule="evenodd" d="M122.84 94.28C120.87 94.91 118.68 95.46 116.29 95.9L142.39 95.92C143.26 95.4 144.08 94.86 144.84 94.31L122.85 94.28H122.84ZM111.63 53.87L114.32 41.37L89.2598 59.4L114.26 77.29L111.41 64L141.16 63.98C132.66 58.61 123.09 55.29 111.62 53.87H111.63ZM118.85 65.94L143.85 65.98C147.04 68.52 149.46 71.29 150.99 74.15L133.43 74.12C130.51 70.99 125.65 68.11 118.84 65.94H118.85ZM135.03 76.14L151.92 76.17C152.59 77.95 152.92 79.75 152.87 81.54L136.74 81.52C136.75 79.73 136.19 77.91 135.03 76.15V76.14ZM136.47 83.52C136.12 84.86 135.44 86.17 134.41 87.42L151.23 87.45C151.92 86.17 152.39 84.87 152.64 83.55L136.47 83.52ZM132.38 89.43C131.09 90.5 129.52 91.5 127.66 92.39L147.21 92.42C148.28 91.46 149.19 90.47 149.94 89.46L132.38 89.43Z" fill="#E0403F"/>
</g>
<defs>
<clipPath id="clip0_1287_791">
<rect width="200" height="200" fill="white"/>
</clipPath>
</defs>
</svg>
