<svg width="200" height="200" viewBox="0 0 200 200" fill="none" xmlns="http://www.w3.org/2000/svg">
<g clip-path="url(#clip0_1287_1287)">
<path d="M168.82 0H31.18C13.9598 0 0 13.9598 0 31.18V168.82C0 186.04 13.9598 200 31.18 200H168.82C186.04 200 200 186.04 200 168.82V31.18C200 13.9598 186.04 0 168.82 0Z" fill="white"/>
<path fill-rule="evenodd" clip-rule="evenodd" d="M186.559 54.6101H173.669L173.249 56.5901C172.259 61.2001 171.349 66.0901 170.289 70.6201L167.689 70.2001C163.339 69.6601 159.199 70.7601 155.679 73.0701L153.899 74.3101C152.779 75.1501 151.599 76.2001 150.619 77.1701C150.329 77.4601 150.209 77.6801 149.909 77.9701C148.829 79.0301 147.379 81.0201 146.549 82.2601C144.989 84.6001 143.469 87.4301 142.489 90.3801C141.559 93.2001 140.549 97.3601 141.459 100.86C142.249 103.91 144.259 106.39 147.219 107.28C150.209 108.17 155.299 106.97 157.419 105.94C159.779 104.81 162.789 102.79 164.059 100.4H164.679C164.679 101.14 163.219 106.08 163.169 106.71H175.969L182.589 74.2001C183.029 72.0101 183.439 69.8901 183.909 67.6901L186.559 54.6001V54.6101Z" fill="#A92F32"/>
<path fill-rule="evenodd" clip-rule="evenodd" d="M116.68 107.6C122.43 107.6 127.47 105.64 131.88 102.27C132.18 102.04 132.45 101.79 132.76 101.55C134.08 100.48 135.6 98.8701 136.65 97.5201C137.78 96.0701 138.92 94.3401 139.74 92.7001C141.12 89.9101 142.47 86.0201 142.47 82.7101C142.47 79.7001 142.16 77.7201 140.4 75.3501C139.77 74.5001 138.78 73.5201 137.92 72.9401C137.25 72.4801 136.65 72.0801 135.92 71.7401C133.65 70.6601 130.58 69.9001 128.07 69.9001C124.01 69.9001 122.09 70.1501 118.3 71.5101C117.52 71.7901 115.8 72.5901 115.04 73.0501C109.84 76.1501 106.28 80.1501 103.65 86.0201C103.12 87.2001 102.79 88.3001 102.39 89.5601C101.99 90.7901 101.78 92.2801 101.6 93.6601L101.5 95.9301C101.76 98.2101 101.9 99.4801 103.27 101.54C105.23 104.51 108.88 106.41 112.3 107.09C113.63 107.35 115.15 107.58 116.69 107.58L116.68 107.6Z" fill="#A92F32"/>
<path fill-rule="evenodd" clip-rule="evenodd" d="M76.1395 107.6C81.8895 107.6 86.9295 105.64 91.3395 102.27C93.0094 101 94.8095 99.18 96.0995 97.52C98.2595 94.75 100.019 91.59 100.989 88.18C102.219 83.88 102.639 79.12 99.8495 75.35C98.7395 73.85 97.0495 72.54 95.3695 71.74C94.9895 71.56 94.6395 71.42 94.2495 71.26L93.0595 70.85C89.4095 69.66 85.2995 69.65 81.5195 70.4C79.3095 70.84 77.2295 71.59 75.2995 72.63L73.7495 73.48C73.4795 73.65 73.2695 73.8 72.9995 73.98C72.4695 74.33 72.0495 74.62 71.5495 75.01C67.8695 77.88 65.1195 81.5 63.0895 86.03C62.5595 87.21 62.2295 88.31 61.8295 89.57C61.4295 90.8 61.2195 92.29 61.0395 93.67L60.9395 95.94C61.1995 98.22 61.3395 99.49 62.6995 101.55C63.7195 103.1 64.8895 104.07 66.4195 105.04C69.0395 106.69 72.9395 107.6 76.1295 107.6H76.1395Z" fill="#A92F32"/>
<path fill-rule="evenodd" clip-rule="evenodd" d="M44.8395 70.6101H40.3095L39.2695 76.0601C39.1895 76.4801 39.0195 77.6401 38.8895 77.9001H43.3395L41.3795 87.5901C41.2495 88.4301 41.0495 89.1901 40.8895 90.0301C40.7095 90.9101 40.5995 91.6701 40.4095 92.4801L39.4395 97.3801C38.8795 100.21 37.9595 104.33 37.4895 107.07L35.5195 116.84H48.4995C48.4995 116.23 48.8195 115.03 48.9395 114.43L56.2395 77.8001H65.6595L66.7495 72.4001C66.8595 71.8501 67.0795 71.1701 67.0795 70.5101H57.5695C57.6095 70.0701 57.7495 69.4201 57.8195 68.9901C58.0795 67.4101 58.4195 66.2001 59.1695 64.8201C59.9595 63.3501 61.6995 62.2401 63.9695 62.2401C66.4295 62.2401 68.5595 62.3401 70.8495 63.0901C71.3395 63.2501 72.0495 63.6201 72.4995 63.6601L74.0095 56.1001C73.5695 55.8901 72.7395 55.6701 72.1795 55.5301C71.4695 55.3501 70.8995 55.2101 70.1495 55.0701C68.6795 54.8101 67.1295 54.6301 65.5795 54.5901H63.9595C61.4095 54.6701 58.8895 55.1201 56.6695 56.1001C54.8795 56.8901 52.6495 58.0901 51.2695 59.5001C49.9495 60.8501 49.3795 61.2501 48.2395 62.9701C46.7095 65.2801 45.5195 67.7101 44.8395 70.6001V70.6101Z" fill="#A92F32"/>
<path fill-rule="evenodd" clip-rule="evenodd" d="M115.88 123.43C115.64 123.78 114.87 124.43 114.48 124.78L113.75 125.38C111.94 126.79 110.88 127.54 108.85 128.75L106.15 130.23C105.44 130.52 104.98 130.81 104.27 131.1C99.5801 133.05 96.5801 134.11 91.3001 134.85L86.1801 135.24L83.4901 135.09C79.8601 134.62 78.2201 134.46 74.5001 132.97C70.9701 131.55 67.0401 129.12 64.3801 126.46C63.9001 125.98 63.4801 125.56 63.0001 125.08C60.9301 123.01 59.1601 120.3 57.8501 117.69C57.3401 116.68 57.7801 116.83 56.5801 116.83C56.5901 117.27 56.7801 117.95 56.8801 118.4C57.6501 121.79 59.0101 125.24 60.7501 128.13C61.2401 128.93 61.6901 129.69 62.2301 130.47L63.9201 132.69C64.6601 133.64 66.8401 135.98 67.7201 136.72C69.9501 138.59 70.7401 139.26 73.2701 140.78C77.9901 143.61 83.9901 145.38 90.1001 145.38C97.1301 145.38 100.07 145.04 106.62 143.23C107.27 143.05 107.94 142.8 108.63 142.57C110.4 141.98 112.62 141.01 114.2 140.23C114.5 140.08 114.73 139.95 115 139.79C116.55 138.89 117.45 138.48 119.14 137.35L121.47 135.68C122.1 135.26 123.21 134.18 123.71 133.92L125.58 139.26C125.93 140.13 126.2 141.04 126.52 141.96C126.68 142.43 126.84 142.83 126.99 143.27C127.13 143.7 127.41 144.23 127.45 144.68H127.63C127.63 144.12 131.98 122.52 132.76 118.6C132.84 118.19 133.01 117.1 133.14 116.84C132.74 116.84 132.52 116.75 131.98 116.75H112.51C111.94 116.75 107.45 116.68 107.45 116.68C107.14 116.76 107.3 116.79 107.43 116.91L114.41 122.22C114.7 122.44 114.88 122.6 115.16 122.81C115.41 123 115.72 123.18 115.89 123.42L115.88 123.43Z" fill="#A92F32"/>
<path fill-rule="evenodd" clip-rule="evenodd" d="M17.6396 106.71H30.5296L31.4096 102.26C31.7096 100.74 31.9996 99.2201 32.2996 97.7301L35.8696 79.7001C36.0196 78.9701 36.1797 78.2201 36.3097 77.4701L37.6396 70.6201H24.8396L23.4996 77.2801C22.6096 81.6901 17.6496 106.09 17.6396 106.72V106.71Z" fill="#A92F32"/>
<path fill-rule="evenodd" clip-rule="evenodd" d="M25.9993 65.1001H38.5293C38.9293 65.1001 39.1293 63.3201 39.2593 62.6301L40.8393 54.6101H28.2193C27.8293 54.6901 27.9993 54.7101 27.8093 55.7101L26.2093 63.7101C26.1293 64.1701 25.9893 64.6601 25.9893 65.1001H25.9993Z" fill="#A92F32"/>
</g>
<defs>
<clipPath id="clip0_1287_1287">
<rect width="200" height="200" fill="white"/>
</clipPath>
</defs>
</svg>
