<svg width="200" height="200" viewBox="0 0 200 200" fill="none" xmlns="http://www.w3.org/2000/svg">
<g clip-path="url(#clip0_1287_742)">
<path d="M168.82 0H31.18C13.9598 0 0 13.9598 0 31.18V168.82C0 186.04 13.9598 200 31.18 200H168.82C186.04 200 200 186.04 200 168.82V31.18C200 13.9598 186.04 0 168.82 0Z" fill="white"/>
<path d="M110.29 35.01L110.24 63.78L110.19 92.55L107.83 85.87V85.85L104.76 149.89C107.77 158.38 109.38 162.92 109.4 162.94C109.42 162.96 111.13 163.06 113.2 163.16C119.47 163.47 127.24 164.14 133.15 164.87C134.52 165.04 135.68 165.13 135.77 165.06C135.86 164.99 135.87 135.71 135.86 99.97L135.81 35H110.3L110.29 35.01Z" fill="#A21917"/>
<path d="M64.1396 34.93V99.96C64.1396 135.73 64.1697 165.03 64.2297 165.08C64.2897 165.13 66.4897 164.91 69.1597 164.62C71.8297 164.33 75.5096 163.95 77.3496 163.8C80.1596 163.56 88.5797 163.03 89.5396 163.01C89.8297 163.01 89.8496 161.55 89.8796 135.46L89.9296 107.91L91.9697 113.66C92.2796 114.55 92.3797 114.82 92.6897 115.7L95.7597 51.68C95.1097 49.85 95.4496 50.81 94.7197 48.72C92.2197 41.65 90.0997 35.67 90.0097 35.4L89.8396 34.92H64.1497V34.94L64.1396 34.93Z" fill="#A21917"/>
<path d="M110.29 35.01L110.24 63.78L110.19 92.55L107.83 85.87V85.85L104.76 149.89C107.77 158.38 109.38 162.92 109.4 162.94C109.42 162.96 111.13 163.06 113.2 163.16C119.47 163.47 127.24 164.14 133.15 164.87C134.52 165.04 135.68 165.13 135.77 165.06C135.86 164.99 135.87 135.71 135.86 99.97L135.81 35H110.3L110.29 35.01Z" fill="#A21917"/>
<path d="M64.1396 34.93V99.96C64.1396 135.73 64.1697 165.03 64.2297 165.08C64.2897 165.13 66.4897 164.91 69.1597 164.62C71.8297 164.33 75.5096 163.95 77.3496 163.8C80.1596 163.56 88.5797 163.03 89.5396 163.01C89.8297 163.01 89.8496 161.55 89.8796 135.46L89.9296 107.91L91.9697 113.66C92.2796 114.55 92.3797 114.82 92.6897 115.7L95.7597 51.68C95.1097 49.85 95.4496 50.81 94.7197 48.72C92.2197 41.65 90.0997 35.67 90.0097 35.4L89.8396 34.92H64.1497V34.94L64.1396 34.93Z" fill="#A21917"/>
<path d="M64.1396 34.93V71.44L89.8596 139.66C89.8596 138.1 89.8596 137.25 89.8796 135.46L89.9296 107.91L91.9697 113.66C103.27 145.72 109.35 162.91 109.38 162.94C109.4 162.96 111.11 163.06 113.18 163.16C119.45 163.47 127.22 164.14 133.13 164.87C134.5 165.04 135.66 165.13 135.75 165.06C135.8 165.01 135.84 150.66 135.84 130.4L110.26 56.8L110.24 63.77L110.19 92.54L107.83 85.86C105.52 79.34 103.98 74.97 94.6796 48.7C92.1796 41.63 90.0597 35.65 89.9697 35.38L89.7997 34.9H64.1497V34.92L64.1396 34.93Z" fill="url(#paint0_radial_1287_742)"/>
<path d="M64.1399 34.93L89.9099 107.96V107.93L91.9499 113.68C103.27 145.72 109.35 162.91 109.38 162.94C109.4 162.96 111.11 163.06 113.18 163.16C119.45 163.47 127.22 164.14 133.13 164.87C134.48 165.04 135.66 165.13 135.73 165.06L110.18 92.53V92.55L107.82 85.87C105.51 79.35 103.97 74.98 94.6699 48.71C92.1699 41.64 90.0499 35.66 89.9599 35.39L89.7899 34.91H76.9599L64.1299 34.93H64.1399Z" fill="#D51019"/>
</g>
<defs>
<radialGradient id="paint0_radial_1287_742" cx="0" cy="0" r="1" gradientUnits="userSpaceOnUse" gradientTransform="translate(167.799 83.8998) rotate(-19.1) scale(4.82 173.134)">
<stop/>
<stop offset="1" stop-opacity="0"/>
</radialGradient>
<clipPath id="clip0_1287_742">
<rect width="200" height="200" fill="white"/>
</clipPath>
</defs>
</svg>
