<svg width="200" height="200" viewBox="0 0 200 200" fill="none" xmlns="http://www.w3.org/2000/svg">
<g clip-path="url(#clip0_1287_517)">
<path d="M168.82 0H31.18C13.9598 0 0 13.9598 0 31.18V168.82C0 186.04 13.9598 200 31.18 200H168.82C186.04 200 200 186.04 200 168.82V31.18C200 13.9598 186.04 0 168.82 0Z" fill="white"/>
<path d="M185.4 102.01H164.94C164.83 101.65 164.8 95.5801 164.91 94.9801C165.05 94.9701 165.2 94.9501 165.35 94.9501C171.95 94.9501 178.56 94.9501 185.16 94.9501C185.24 94.9501 185.32 94.9501 185.39 94.9601V102L185.4 102.01Z" fill="#E02323"/>
<path d="M148.09 57.79C148.09 59.65 148.09 61.51 148.09 63.37C148.09 68.29 148.09 73.22 148.09 78.14C148.09 78.34 148.09 78.54 148.09 78.77H141.3C141.3 78.58 141.28 78.38 141.28 78.18C141.28 71.58 141.28 64.99 141.28 58.39C141.28 58.19 141.26 57.99 141.24 57.79C143.53 57.79 145.81 57.79 148.1 57.79H148.09Z" fill="#E02323"/>
<path d="M60.18 103.91C60.07 104.32 59.99 104.67 59.89 105.01C59.15 107.47 57.97 109.7 56.38 111.7C53.71 115.06 50.36 117.45 46.16 118.55C44.07 119.1 41.95 119.32 39.79 119.19C35.94 118.94 32.43 117.75 29.39 115.36C25.31 112.15 22.55 108.06 21.49 102.91C21 100.52 20.91 98.1101 21.14 95.6801C21.5 91.9801 22.74 88.6201 24.94 85.6301C26.75 83.1601 28.9 81.0401 31.58 79.4901C33.55 78.3501 35.68 77.6601 37.93 77.3201C39.55 77.0801 41.18 77.0701 42.8 77.1801C45.64 77.3701 48.29 78.2501 50.72 79.7201C55.46 82.5901 58.55 86.7301 60.08 92.0401C60.11 92.1301 60.13 92.2201 60.14 92.3101C60.14 92.3501 60.14 92.4001 60.14 92.4701H52.15C52.08 92.3401 51.99 92.1801 51.91 92.0201C50.98 90.2601 49.79 88.7001 48.19 87.4801C46.53 86.2201 44.67 85.3501 42.59 85.1201C38.9 84.7101 35.61 85.6701 32.87 88.2501C31.33 89.6901 30.09 91.3401 29.36 93.3401C28.92 94.5401 28.7 95.7701 28.62 97.0501C28.53 98.3401 28.58 99.6101 28.8 100.88C29.25 103.5 30.51 105.69 32.36 107.56C33.99 109.21 35.88 110.39 38.15 110.95C42.49 112.01 47.4 110.52 50.27 106.85C50.92 106.02 51.52 105.16 51.98 104.22C52.11 103.97 52.25 103.85 52.55 103.85C54.95 103.86 57.34 103.85 59.74 103.85C59.86 103.85 59.98 103.87 60.19 103.89L60.18 103.91Z" fill="#E02323"/>
<path d="M103.47 119.45C100.89 119.42 98.3599 119.54 95.7699 119.38C95.6799 118.31 95.7999 117.25 95.6999 116.14C95.5499 116.23 95.4599 116.28 95.3799 116.34C93.5899 117.82 91.4999 118.66 89.2299 119.06C88.2299 119.24 87.2199 119.37 86.2099 119.43C84.8099 119.51 83.4299 119.23 82.1099 118.77C79.5899 117.88 77.9399 116.14 77.1499 113.59C76.8599 112.64 76.7199 111.67 76.6799 110.68C76.6299 109.36 76.7699 108.06 77.0699 106.77C77.6399 104.32 79.0599 102.53 81.1999 101.27C82.3599 100.59 83.6199 100.16 84.9199 99.87C86.5999 99.5 88.2999 99.23 89.9899 98.92C90.7999 98.77 91.6199 98.64 92.4399 98.51C92.7499 98.46 93.0599 98.43 93.3599 98.36C94.6799 98.05 95.5199 97.02 95.4999 95.66C95.4999 95.23 95.4199 94.79 95.2999 94.37C95.0999 93.7 94.6599 93.2 94.0399 92.87C93.4199 92.54 92.7699 92.35 92.0799 92.25C90.9099 92.08 89.7399 92.09 88.5799 92.31C87.3299 92.54 86.3799 93.2 85.7899 94.32C85.5099 94.85 85.3399 95.45 85.1299 96.02C85.0599 96.21 85.0299 96.41 84.9699 96.63H77.3099C77.3599 96.22 77.3999 95.84 77.4599 95.46C77.6199 94.34 77.8499 93.24 78.2399 92.18C79.2799 89.33 81.2699 87.42 84.0899 86.34C85.1799 85.93 86.3099 85.74 87.4599 85.56C88.9899 85.32 90.5199 85.35 92.0499 85.4C94.0599 85.47 96.0199 85.89 97.8899 86.66C98.2199 86.8 98.5499 86.94 98.8799 87.09C101.1 88.09 102.47 89.8 103.08 92.13C103.38 93.27 103.53 94.43 103.53 95.61C103.53 103.32 103.53 111.04 103.53 118.75C103.53 118.96 103.51 119.18 103.49 119.43L103.47 119.45ZM95.3999 102.84C95.0899 103 94.8499 103.11 94.6199 103.23C94.2699 103.41 93.9399 103.65 93.5699 103.75C92.1099 104.14 90.6299 104.49 89.1599 104.83C88.2599 105.03 87.3599 105.22 86.5299 105.65C85.5499 106.16 84.8899 106.94 84.5599 107.99C84.1699 109.25 84.2399 110.48 84.7499 111.7C85.1999 112.79 86.0999 113.33 87.1799 113.56C88.4099 113.82 89.6399 113.69 90.8299 113.28C92.8499 112.6 94.3899 111.41 94.9799 109.25C94.9999 109.19 95.0199 109.13 95.0299 109.07C95.1399 108.5 95.2799 107.94 95.3399 107.37C95.4999 105.91 95.4299 104.44 95.3999 102.84Z" fill="#E02323"/>
<path d="M143.76 119.45C143.42 119.45 143.07 119.43 142.73 119.45C140.9 119.56 139.2 119.06 137.56 118.33C133.45 116.51 128.98 112.03 127.9 106.03C127.19 102.11 127.57 98.31 129.35 94.74C131.3 90.85 134.26 87.99 138.36 86.39C139.61 85.9 140.91 85.67 142.24 85.56C143.54 85.45 144.84 85.51 146.13 85.66C148.26 85.91 150.23 86.66 152.02 87.83C156.17 90.52 158.74 94.31 159.64 99.18C160.35 103.03 159.98 106.78 158.2 110.29C155.98 114.69 152.53 117.74 147.71 119.11C146.89 119.34 146.07 119.48 145.21 119.45C144.73 119.43 144.24 119.45 143.75 119.45H143.76ZM144.08 93.52C142.48 93.51 141.8 93.6 140.99 93.88C137.56 95.07 134.43 99.14 135.25 104.02C135.51 105.58 136.17 106.95 137.1 108.23C139.85 112 145.32 112.79 148.91 109.79C151.77 107.4 152.89 104.28 152.21 100.6C151.75 98.13 150.43 96.19 148.35 94.77C146.99 93.84 145.47 93.42 144.09 93.52H144.08Z" fill="#E02323"/>
<path d="M116.42 119.45C113.86 119.45 111.36 119.48 108.81 119.43C108.71 108.59 108.81 97.8001 108.81 87.0301C109.31 86.8601 114.88 86.9601 116.19 87.1501V90.9601C116.19 90.9601 116.26 90.9901 116.3 91.0101C116.4 90.8901 116.51 90.7701 116.61 90.6501C117.42 89.6101 118.33 88.6601 119.4 87.8901C120.36 87.2001 121.38 86.6401 122.54 86.3501C123.46 86.1201 124.38 85.8601 125.31 85.6601C125.73 85.5701 126.18 85.6001 126.65 85.5701C126.67 85.7501 126.71 85.8801 126.71 86.0101C126.75 88.3901 126.78 90.7601 126.82 93.1401C126.82 93.3201 126.82 93.5101 126.82 93.7401C126.33 93.7001 125.89 93.6701 125.46 93.6201C123.06 93.3401 121.01 94.1201 119.27 95.7101C117.65 97.1801 116.81 99.0301 116.58 101.22C116.4 102.91 116.43 104.59 116.42 106.28C116.41 110.46 116.42 114.63 116.42 118.81C116.42 119 116.42 119.18 116.42 119.45Z" fill="#E02323"/>
<path d="M72.0099 77.1901V119.41H64.4199V77.2201C64.7399 77.1201 71.4299 77.0901 72.0099 77.1901Z" fill="#E02323"/>
<path d="M156.5 81.54C162.76 75.02 168.99 68.54 175.25 62.01C176.87 63.7 178.45 65.35 180.08 67.05C173.86 73.6 167.61 80.05 161.37 86.61C159.74 84.92 158.13 83.24 156.5 81.54Z" fill="#E02323"/>
</g>
<defs>
<clipPath id="clip0_1287_517">
<rect width="200" height="200" fill="white"/>
</clipPath>
</defs>
</svg>
