<svg width="200" height="200" viewBox="0 0 200 200" fill="none" xmlns="http://www.w3.org/2000/svg">
<g clip-path="url(#clip0_1287_925)">
<path d="M168.82 0H31.18C13.9598 0 0 13.9598 0 31.18V168.82C0 186.04 13.9598 200 31.18 200H168.82C186.04 200 200 186.04 200 168.82V31.18C200 13.9598 186.04 0 168.82 0Z" fill="white"/>
<path d="M11.43 111.25L11.21 79.62H18.06L17.62 90.46L20.72 88.25L28.9 88.03L31.55 93.12L30.67 110.37L26.47 110.14L26.25 94L23.81 92.01L21.16 91.57L16.96 95.33L16.07 111.03L11.43 111.25Z" fill="#DD2D2E"/>
<path d="M55.6599 107.71H54.3299L53.4499 108.37L50.7999 108.59L51.6799 100.18L51.8999 91.11L48.1399 86.46H37.9699L34.2099 90V93.76H38.6299L39.5199 91.55L40.8499 89.34L44.3899 89.56L46.3799 90.67V96.42L45.7199 96.64L43.7299 95.09H40.8499L36.4299 96.42L32.6699 100.18L32.8899 107.26L39.0799 112.79L46.1599 109.03L50.3599 112.79L56.3299 109.69L55.6699 107.7L55.6599 107.71ZM46.1499 105.72L41.2799 107.49L37.7399 104.61L37.5199 100.63L39.9499 98.86L43.7099 99.08L46.1399 100.85V105.72H46.1499Z" fill="#DD2D2E"/>
<path d="M52.1201 86.04L58.7601 86.26L61.6301 103.29L62.7401 103.51L68.2701 86.7L72.4701 87.36L65.3901 109.93L58.1001 110.14L52.1201 86.04Z" fill="#DD2D2E"/>
<path d="M86.4003 87.59L79.1003 87.15L72.4703 91.13L71.8003 94.89H76.8903L77.5503 92.46L79.1003 91.13L82.8603 90.91L85.9603 93.34L86.1803 98.21H85.3003L80.6503 96L73.1303 97.11L70.0303 102.64L71.8003 109.05L77.1103 111.71L79.7603 111.93L85.2903 108.17L86.1703 108.84L86.3903 112.16L90.5903 111.72L91.0303 92.25L86.3803 87.61L86.4003 87.59ZM85.9603 105.5L80.8703 107.49L78.4403 107.93L76.2303 105.72L76.4503 101.74L79.9903 98.87L85.9603 102.19V105.51V105.5Z" fill="#DD2D2E"/>
<path d="M92.8203 111.91V94L98.1303 93.78L97.0203 111.69L92.8203 111.91Z" fill="#DD2D2E"/>
<path d="M94.3703 92.2299L92.8203 90.8999V87.5899L94.5903 85.8099H97.4603L99.0103 88.4699V90.4599L97.4603 91.5699L94.3703 92.2299Z" fill="#DD2D2E"/>
<path d="M129.75 108.38L129.09 111.48C129.09 111.48 127.98 113.47 124 113.47C120.02 113.47 118.47 109.71 118.47 109.71L118.69 105.95L119.8 99.31L120.02 92.23L116.48 87.14H107.19L101.66 90.46L100.55 92.45V94.88H105.2L106.75 91.56L110.95 89.79L114.05 91.78L114.27 99.52L108.3 95.76L101.67 98.19L99.0195 103.06V104.83L99.8995 108.59L107.42 112.57L114.05 108.59L114.71 109.03V111.02L116.7 113.23C118.69 115.44 124 116.32 125.99 116.1C127.98 115.88 132.85 113.67 132.85 113.67L134.18 107.92L129.76 108.36L129.75 108.38ZM114.27 105.73L108.74 108.6L107.19 108.82L105.42 106.61L105.2 102.41L107.63 99.54H109.62L114.26 102.19V105.73H114.27Z" fill="#DD2D2E"/>
<path d="M137.28 109.48L140.59 108.82L142.58 92.01L138.16 87.36H130.42L127.76 89.8L127.54 86.26L122.01 86.04L121.79 110.14H126.66L127.32 94L130.86 91.57H135.28L137.28 93.78V109.48Z" fill="#DD2D2E"/>
<path d="M164.48 109.48L163.15 109.04L163.37 105.06L164.25 98.21L164.69 91.13L159.6 86.26H150.31L145.22 89.8L144.56 92.46V94.45L149.64 94.23L150.52 91.8L152.07 90.48L154.06 90.04L156.72 89.6L159.15 91.59L158.93 97.34L156.06 95.13L148.32 95.8L143.45 99.78L143.67 104.87L144.56 108.63L151.42 111.95L158.5 107.75L159.17 109.96L163.15 112.61L166.69 111.06L167.13 109.07L164.48 109.51V109.48ZM158.73 104.61L153.64 106.82H150.76L149.43 105.27L148.99 101.73L151.2 98.19H154.96L159.16 101.73L158.72 104.61H158.73Z" fill="#DD2D2E"/>
<path d="M182.4 94.44L180.19 89.79L177.32 89.13L174.22 90.24L173.12 92.45L172.68 94.88L173.56 96.21H183.51L187.71 100.41L187.93 103.28L186.82 104.17V106.82L179.08 110.8L176.87 111.24L171.78 109.91L168.24 109.25L166.03 103.72V101.73L171.56 101.95L172.45 106.15L178.42 107.92L181.07 106.15L181.95 103.05L178.85 99.29H170.44L168.67 99.07C168.67 99.07 164.69 94.87 168.67 88.9L174.86 86.03L185.92 87.36L186.8 93.77L182.38 94.43L182.4 94.44Z" fill="#DD2D2E"/>
<path d="M188.37 107.49L188.15 105.72L190.58 105.5L190.36 107.27L188.37 107.49Z" fill="#DD2D2E"/>
</g>
<defs>
<clipPath id="clip0_1287_925">
<rect width="200" height="200" fill="white"/>
</clipPath>
</defs>
</svg>
